<svg width="14" height="14" viewBox="0 0 14 14" fill="none" xmlns="http://www.w3.org/2000/svg">
<path d="M9.81932 7.42831L12.8508 6.11065C13.0505 6.0221 13.2188 5.87525 13.3335 5.68937C13.4483 5.50349 13.5041 5.28727 13.4938 5.06907C13.4835 4.85086 13.4074 4.64088 13.2757 4.46667C13.1439 4.29245 12.9625 4.16215 12.7553 4.09285L1.91595 0.553574C1.72628 0.491499 1.52311 0.483191 1.32901 0.529572C1.1349 0.575953 0.957445 0.675208 0.816328 0.816324C0.675211 0.957439 0.575954 1.1349 0.529572 1.329C0.483191 1.5231 0.491499 1.72626 0.553575 1.91593L4.0929 12.7552C4.1596 12.9643 4.28897 13.148 4.46349 13.2812C4.63802 13.4144 4.84926 13.4908 5.06863 13.5H5.12145C5.33186 13.5007 5.53784 13.4396 5.71374 13.3241C5.88964 13.2086 6.0277 13.044 6.11072 12.8506L7.4284 9.8192L10.7917 13.1824C10.8923 13.2831 11.0117 13.3629 11.1432 13.4173C11.2746 13.4718 11.4155 13.4998 11.5578 13.4998C11.7001 13.4998 11.841 13.4718 11.9725 13.4173C12.104 13.3629 12.2234 13.2831 12.324 13.1824L13.1826 12.3238C13.2832 12.2232 13.363 12.1038 13.4175 11.9723C13.472 11.8409 13.5 11.7 13.5 11.5577C13.5 11.4154 13.472 11.2745 13.4175 11.143C13.363 11.0116 13.2832 10.8921 13.1826 10.7915L9.81932 7.42831ZM11.5575 12.4166L8.19423 9.05339C8.0694 8.92833 7.91589 8.83571 7.74706 8.78358C7.57823 8.73146 7.39921 8.72141 7.22561 8.75433C7.05202 8.78725 6.8891 8.86212 6.75107 8.97243C6.61304 9.08274 6.50409 9.22513 6.43371 9.3872L5.11941 12.4112L1.5828 1.58279L12.408 5.11732L9.38461 6.43228C9.22254 6.50266 9.08015 6.61161 8.96984 6.74964C8.85952 6.88766 8.78465 7.05057 8.75173 7.22417C8.71881 7.39777 8.72886 7.57678 8.78098 7.74561C8.83311 7.91443 8.92573 8.06795 9.05079 8.19277L12.4168 11.5574L11.5575 12.4166Z" fill="black"/>
</svg>
