<svg width="24" height="25" viewBox="0 0 24 25" fill="none" xmlns="http://www.w3.org/2000/svg">
<path d="M9.57043 19.3201C9.38043 19.3201 9.19043 19.2501 9.04043 19.1001L2.97043 13.0301C2.68043 12.7401 2.68043 12.2601 2.97043 11.9701L9.04043 5.90012C9.33043 5.61012 9.81043 5.61012 10.1004 5.90012C10.3904 6.19012 10.3904 6.67012 10.1004 6.96012L4.56043 12.5001L10.1004 18.0401C10.3904 18.3301 10.3904 18.8101 10.1004 19.1001C9.96043 19.2501 9.76043 19.3201 9.57043 19.3201Z" fill="#292D32"/>
<path d="M20.4999 13.25H3.66992C3.25992 13.25 2.91992 12.91 2.91992 12.5C2.91992 12.09 3.25992 11.75 3.66992 11.75H20.4999C20.9099 11.75 21.2499 12.09 21.2499 12.5C21.2499 12.91 20.9099 13.25 20.4999 13.25Z" fill="#292D32"/>
</svg>
