<svg width="60" height="56" viewBox="0 0 60 56" fill="none" xmlns="http://www.w3.org/2000/svg">
<rect x="0.5" y="4.5" width="55" height="51" rx="7.5" fill="#F0FFFF"/>
<rect x="0.5" y="4.5" width="55" height="51" rx="7.5" stroke="#8CDBB4"/>
<path d="M34.4699 34.83L34.8599 37.99C34.9599 38.82 34.0699 39.4 33.3599 38.97L29.8999 36.91C29.6599 36.77 29.5999 36.47 29.7299 36.23C30.2299 35.31 30.4999 34.27 30.4999 33.23C30.4999 29.57 27.3599 26.59 23.4999 26.59C22.7099 26.59 21.9399 26.71 21.2199 26.95C20.8499 27.07 20.4899 26.73 20.5799 26.35C21.4899 22.71 24.9899 20 29.1699 20C34.0499 20 37.9999 23.69 37.9999 28.24C37.9999 30.94 36.6099 33.33 34.4699 34.83Z" fill="#64B38C"/>
<path d="M29 33.2298C29 34.4198 28.56 35.5198 27.82 36.3898C26.83 37.5898 25.26 38.3598 23.5 38.3598L20.89 39.9098C20.45 40.1798 19.89 39.8098 19.95 39.2998L20.2 37.3298C18.86 36.3998 18 34.9098 18 33.2298C18 31.4698 18.94 29.9198 20.38 28.9998C21.27 28.4198 22.34 28.0898 23.5 28.0898C26.54 28.0898 29 30.3898 29 33.2298Z" fill="#64B38C"/>
<circle cx="54" cy="6" r="6" fill="#FF3B30"/>
</svg>
