<svg width="16" height="16" viewBox="0 0 16 16" fill="none" xmlns="http://www.w3.org/2000/svg">
<path d="M7.99992 15.2067C7.53992 15.2067 7.10659 14.9734 6.79992 14.5667L5.79992 13.2334C5.77992 13.2067 5.69992 13.1734 5.66659 13.1667H5.33325C2.55325 13.1667 0.833252 12.4134 0.833252 8.66671V5.33337C0.833252 2.38671 2.38659 0.833374 5.33325 0.833374H10.6666C13.6133 0.833374 15.1666 2.38671 15.1666 5.33337V8.66671C15.1666 11.6134 13.6133 13.1667 10.6666 13.1667H10.3333C10.2799 13.1667 10.2333 13.1934 10.1999 13.2334L9.19992 14.5667C8.89325 14.9734 8.45992 15.2067 7.99992 15.2067ZM5.33325 1.83337C2.94659 1.83337 1.83325 2.94671 1.83325 5.33337V8.66671C1.83325 11.68 2.86659 12.1667 5.33325 12.1667H5.66659C6.00659 12.1667 6.39325 12.36 6.59992 12.6334L7.59992 13.9667C7.83325 14.2734 8.16659 14.2734 8.39992 13.9667L9.39992 12.6334C9.61992 12.34 9.96659 12.1667 10.3333 12.1667H10.6666C13.0533 12.1667 14.1666 11.0534 14.1666 8.66671V5.33337C14.1666 2.94671 13.0533 1.83337 10.6666 1.83337H5.33325Z" fill="#686B78"/>
<path d="M11.3334 5.83337H4.66675C4.39341 5.83337 4.16675 5.60671 4.16675 5.33337C4.16675 5.06004 4.39341 4.83337 4.66675 4.83337H11.3334C11.6067 4.83337 11.8334 5.06004 11.8334 5.33337C11.8334 5.60671 11.6067 5.83337 11.3334 5.83337Z" fill="#686B78"/>
<path d="M8.66675 9.16663H4.66675C4.39341 9.16663 4.16675 8.93996 4.16675 8.66663C4.16675 8.39329 4.39341 8.16663 4.66675 8.16663H8.66675C8.94008 8.16663 9.16675 8.39329 9.16675 8.66663C9.16675 8.93996 8.94008 9.16663 8.66675 9.16663Z" fill="#686B78"/>
</svg>
