<svg width="80" height="80" viewBox="0 0 80 80" fill="none" xmlns="http://www.w3.org/2000/svg">
<rect x="0.5" y="0.5" width="79" height="79" rx="7.5" fill="#F0FFFF"/>
<rect x="0.5" y="0.5" width="79" height="79" rx="7.5" stroke="#C8FFF0"/>
<path d="M49.7765 16.6666H30.2232C21.7298 16.6666 16.6665 21.73 16.6665 30.2233V49.7766C16.6665 58.27 21.7298 63.3333 30.2232 63.3333H49.7765C58.2698 63.3333 63.3332 58.27 63.3332 49.7766V30.2233C63.3332 21.73 58.2698 16.6666 49.7765 16.6666ZM35.2632 46.7666L30.0132 52.0166C29.6632 52.3666 29.2198 52.53 28.7765 52.53C28.3332 52.53 27.8665 52.3666 27.5398 52.0166L25.7898 50.2666C25.0898 49.59 25.0898 48.47 25.7898 47.7933C26.4665 47.1166 27.5632 47.1166 28.2632 47.7933L28.7765 48.3066L32.7898 44.2933C33.4665 43.6166 34.5632 43.6166 35.2632 44.2933C35.9398 44.97 35.9398 46.09 35.2632 46.7666ZM35.2632 30.4333L30.0132 35.6833C29.6632 36.0333 29.2198 36.1966 28.7765 36.1966C28.3332 36.1966 27.8665 36.0333 27.5398 35.6833L25.7898 33.9333C25.0898 33.2566 25.0898 32.1366 25.7898 31.46C26.4665 30.7833 27.5632 30.7833 28.2632 31.46L28.7765 31.9733L32.7898 27.96C33.4665 27.2833 34.5632 27.2833 35.2632 27.96C35.9398 28.6366 35.9398 29.7566 35.2632 30.4333ZM52.9732 50.78H40.7232C39.7665 50.78 38.9732 49.9866 38.9732 49.03C38.9732 48.0733 39.7665 47.28 40.7232 47.28H52.9732C53.9532 47.28 54.7232 48.0733 54.7232 49.03C54.7232 49.9866 53.9532 50.78 52.9732 50.78ZM52.9732 34.4466H40.7232C39.7665 34.4466 38.9732 33.6533 38.9732 32.6966C38.9732 31.74 39.7665 30.9466 40.7232 30.9466H52.9732C53.9532 30.9466 54.7232 31.74 54.7232 32.6966C54.7232 33.6533 53.9532 34.4466 52.9732 34.4466Z" fill="#287750"/>
</svg>
