<svg width="48" height="48" viewBox="0 0 48 48" fill="none" xmlns="http://www.w3.org/2000/svg">
<rect width="48" height="48" rx="8" fill="#1D6FA0"/>
<path d="M20.75 15.5V14C20.75 13.59 20.41 13.25 20 13.25C19.59 13.25 19.25 13.59 19.25 14V15.56C19.5 15.53 19.73 15.5 20 15.5H20.75Z" fill="#F4F7FF"/>
<path d="M28.75 15.56V14C28.75 13.59 28.41 13.25 28 13.25C27.59 13.25 27.25 13.59 27.25 14V15.5H28C28.27 15.5 28.5 15.53 28.75 15.56Z" fill="#F4F7FF"/>
<path d="M28.75 15.56V17C28.75 17.41 28.41 17.75 28 17.75C27.59 17.75 27.25 17.41 27.25 17V15.5H20.75V17C20.75 17.41 20.41 17.75 20 17.75C19.59 17.75 19.25 17.41 19.25 17V15.56C16.3 15.83 15 17.73 15 20.5V29C15 32 16.5 34 20 34H28C31.5 34 33 32 33 29V20.5C33 17.73 31.7 15.83 28.75 15.56ZM24 28.75H20C19.59 28.75 19.25 28.41 19.25 28C19.25 27.59 19.59 27.25 20 27.25H24C24.41 27.25 24.75 27.59 24.75 28C24.75 28.41 24.41 28.75 24 28.75ZM28 23.75H20C19.59 23.75 19.25 23.41 19.25 23C19.25 22.59 19.59 22.25 20 22.25H28C28.41 22.25 28.75 22.59 28.75 23C28.75 23.41 28.41 23.75 28 23.75Z" fill="#F4F7FF"/>
</svg>
