<svg width="80" height="80" viewBox="0 0 80 80" fill="none" xmlns="http://www.w3.org/2000/svg">
<rect x="0.5" y="0.5" width="79" height="79" rx="7.5" fill="#FFEED2"/>
<rect x="0.5" y="0.5" width="79" height="79" rx="7.5" stroke="#FFD48B"/>
<path d="M30.0835 20.1666V16.6666C30.0835 15.71 29.2902 14.9166 28.3335 14.9166C27.3768 14.9166 26.5835 15.71 26.5835 16.6666V20.3066C27.1668 20.2366 27.7035 20.1666 28.3335 20.1666H30.0835Z" fill="#EE9500"/>
<path d="M48.75 20.3066V16.6666C48.75 15.71 47.9567 14.9166 47 14.9166C46.0433 14.9166 45.25 15.71 45.25 16.6666V20.1666H47C47.63 20.1666 48.1667 20.2366 48.75 20.3066Z" fill="#EE9500"/>
<path d="M61.6765 46.93C59.8798 45.5066 57.6165 44.6666 55.1665 44.6666C52.7165 44.6666 50.4065 45.53 48.6098 46.9766C46.1832 48.89 44.6665 51.8766 44.6665 55.1666C44.6665 57.1266 45.2265 59.0166 46.1832 60.5566C46.9298 61.77 47.8865 62.8433 49.0298 63.66C50.7565 64.92 52.8565 65.6666 55.1665 65.6666C57.8265 65.6666 60.2298 64.6866 62.0732 63.0533C62.8898 62.3766 63.5898 61.5366 64.1498 60.58C65.1065 59.0166 65.6665 57.1266 65.6665 55.1666C65.6665 51.83 64.1032 48.8433 61.6765 46.93ZM55.1665 60.16C55.1665 57.4066 52.9265 55.1666 50.1732 55.1666C52.9265 55.1666 55.1665 52.9266 55.1665 50.1733C55.1665 52.9266 57.4065 55.1666 60.1598 55.1666C57.4065 55.1666 55.1665 57.4066 55.1665 60.16Z" fill="#EE9500"/>
<path d="M48.7498 20.3066V23.6666C48.7498 24.6233 47.9565 25.4166 46.9998 25.4166C46.0432 25.4166 45.2498 24.6233 45.2498 23.6666V20.1666H30.0832V23.6666C30.0832 24.6233 29.2898 25.4166 28.3332 25.4166C27.3765 25.4166 26.5832 24.6233 26.5832 23.6666V20.3066C19.6998 20.9366 16.6665 25.37 16.6665 31.8333V51.6666C16.6665 58.6666 20.1665 63.3333 28.3332 63.3333H37.9698C39.7432 63.3333 40.9332 61.35 40.4898 59.6233C40.1632 58.3633 39.9998 57.0566 39.9998 55.75C39.9998 50.8966 42.1698 46.4166 45.9265 43.4533C48.6565 41.2366 52.1565 40 55.7498 40H55.8432C57.3132 40 58.6665 38.9266 58.6665 37.4566V31.8333C58.6665 25.37 55.6332 20.9366 48.7498 20.3066ZM32.9998 51.0833H28.3332C27.3765 51.0833 26.5832 50.29 26.5832 49.3333C26.5832 48.3766 27.3765 47.5833 28.3332 47.5833H32.9998C33.9565 47.5833 34.7498 48.3766 34.7498 49.3333C34.7498 50.29 33.9565 51.0833 32.9998 51.0833ZM39.9998 39.4166H28.3332C27.3765 39.4166 26.5832 38.6233 26.5832 37.6666C26.5832 36.71 27.3765 35.9166 28.3332 35.9166H39.9998C40.9565 35.9166 41.7498 36.71 41.7498 37.6666C41.7498 38.6233 40.9565 39.4166 39.9998 39.4166Z" fill="#EE9500"/>
</svg>
