<svg width="48" height="48" viewBox="0 0 48 48" fill="none" xmlns="http://www.w3.org/2000/svg">
<rect width="48" height="48" rx="8" fill="#1D6FA0"/>
<path d="M26.9299 14.5V20.4C26.9299 20.84 26.4099 21.06 26.0899 20.77L24.3399 19.16C24.1499 18.98 23.8499 18.98 23.6599 19.16L21.9099 20.76C21.5899 21.06 21.0699 20.83 21.0699 20.4V14.5C21.0699 14.22 21.2899 14 21.5699 14H26.4299C26.7099 14 26.9299 14.22 26.9299 14.5Z" fill="#F4F7FF"/>
<path d="M28.98 14.0599C28.69 14.0199 28.43 14.2699 28.43 14.5599V20.5799C28.43 21.3399 27.98 22.0299 27.28 22.3399C26.58 22.6399 25.77 22.5099 25.21 21.9899L24.34 21.1899C24.15 21.0099 23.86 21.0099 23.66 21.1899L22.79 21.9899C22.43 22.3299 21.96 22.4999 21.49 22.4999C21.23 22.4999 20.97 22.4499 20.72 22.3399C20.02 22.0299 19.57 21.3399 19.57 20.5799V14.5599C19.57 14.2699 19.31 14.0199 19.02 14.0599C16.22 14.4099 15 16.2999 15 18.9999V28.9999C15 31.9999 16.5 33.9999 20 33.9999H28C31.5 33.9999 33 31.9999 33 28.9999V18.9999C33 16.2999 31.78 14.4099 28.98 14.0599ZM29.5 30.7499H21C20.59 30.7499 20.25 30.4099 20.25 29.9999C20.25 29.5899 20.59 29.2499 21 29.2499H29.5C29.91 29.2499 30.25 29.5899 30.25 29.9999C30.25 30.4099 29.91 30.7499 29.5 30.7499ZM29.5 26.7499H25.25C24.84 26.7499 24.5 26.4099 24.5 25.9999C24.5 25.5899 24.84 25.2499 25.25 25.2499H29.5C29.91 25.2499 30.25 25.5899 30.25 25.9999C30.25 26.4099 29.91 26.7499 29.5 26.7499Z" fill="#F4F7FF"/>
</svg>
