<svg width="300" height="187" viewBox="0 0 300 187" fill="none" xmlns="http://www.w3.org/2000/svg">
<path d="M298.752 184.663C305.987 171.084 285.308 103.188 141.923 103.188C38.4274 103.188 -9.07413 158.762 1.42751 186.926" fill="url(#paint0_radial_2406_55158)"/>
<mask id="mask0_2406_55158" style="mask-type:luminance" maskUnits="userSpaceOnUse" x="0" y="103" width="300" height="84">
<path d="M298.752 184.663C305.987 171.084 285.308 103.188 141.923 103.188C38.4274 103.188 -9.07413 158.762 1.42751 186.926" fill="white"/>
</mask>
<g mask="url(#mask0_2406_55158)">
<ellipse opacity="0.671968" cx="119.807" cy="163.147" rx="7.88551" ry="4.15371" fill="url(#paint1_linear_2406_55158)"/>
<ellipse opacity="0.256348" cx="200.293" cy="134.922" rx="12.4416" ry="6.47979" fill="url(#paint2_linear_2406_55158)"/>
<ellipse opacity="0.729957" cx="58.7033" cy="117.642" rx="12.4416" ry="6.47979" fill="url(#paint3_linear_2406_55158)"/>
</g>
<path opacity="0.5" d="M116.884 118.245C116.884 118.245 147.396 131.851 159.5 137.072C169.087 141.208 218.456 154.439 224.337 150.678C230.219 146.917 243.204 136.595 238.917 129.524C234.63 122.452 212.084 109.754 201.302 107.899C190.519 106.044 159.688 114.477 159.688 114.477L133.39 118.76L116.884 118.245Z" fill="url(#paint4_linear_2406_55158)"/>
<path d="M139.5 57.4118L105.5 81.1201L114.565 60.9498L148.615 40.45L139.5 57.4118Z" fill="#E2E7EC"/>
<path d="M114 61.3666L148.615 40.8164V96.8624L116.884 117.96L114 61.3666Z" fill="#D8DFE6"/>
<path d="M148.615 40.8164L201.692 52.5923V108.659L148.615 96.8828V40.8164Z" fill="#E9EFF1"/>
<path d="M114 61.3633L168.231 73.3821V129.449L116.884 118.267L114 61.3633Z" fill="#E8EAEB"/>
<path d="M167.076 73.4037L201.691 52.8535V108.899L167.076 129.45V73.4037Z" fill="#D8DFE6"/>
<mask id="mask1_2406_55158" style="mask-type:luminance" maskUnits="userSpaceOnUse" x="167" y="52" width="35" height="78">
<path d="M167.076 73.4037L201.691 52.8535V108.899L167.076 129.45V73.4037Z" fill="white"/>
</mask>
<g mask="url(#mask1_2406_55158)">
<rect x="179.933" y="48.1836" width="10.8791" height="85.9371" fill="#C7D0D9"/>
</g>
<path d="M182.642 90.0574L216.691 69.5575L201.126 52.8535L167.076 73.3534L182.642 90.0574Z" fill="#E2E7EC"/>
<path opacity="0.5" d="M87.4466 119.658L141 145.608L146 131.857L93.4557 115.281L87.4466 119.658Z" fill="url(#paint5_linear_2406_55158)"/>
<path d="M85.9846 76.9988L104.451 78.3792L100.35 116.471C100.35 116.471 99.991 116.852 99.1198 116.705C98.2485 116.557 97.3345 116.097 97.3345 116.097L94.5881 85.8145C94.5881 85.8145 92.9997 96.5224 93.1106 99.535C93.1942 101.805 94.0125 104.574 94.4505 106.942C94.8274 108.98 95.6205 113.851 95.6205 113.851C95.6205 113.851 94.6835 114.257 94.1851 114.349C93.6867 114.441 93.0477 113.937 93.0477 113.937C93.0477 113.937 86.5732 102.018 86.4899 99.7542C86.4065 97.4907 85.9846 76.9988 85.9846 76.9988Z" fill="url(#paint6_linear_2406_55158)"/>
<path d="M92.761 113.882C92.761 113.882 91.9385 115.286 90.9168 116.143C89.895 116.999 87.8788 118.021 87.4192 118.486C86.9595 118.95 87.4615 119.635 87.4615 119.635L92.403 119.471L96.3515 116.304L95.7998 113.285L92.761 113.882Z" fill="#677285"/>
<path d="M100.815 115.508L101.969 118.542C101.969 118.542 100.074 119.933 97.4567 120.321C94.8392 120.708 93.0356 120.113 93.0356 120.113C93.0356 120.113 92.5629 119.21 93.4537 118.824C93.8628 118.647 94.7797 117.91 95.5847 116.966C95.9482 116.54 97.3171 115.624 97.3171 115.624L100.815 115.508Z" fill="#677285"/>
<path d="M109.088 57.139C109.088 57.139 110.601 59.3225 111.529 58.7383C112.457 58.154 118.251 52.5225 118.251 52.5225C118.251 52.5225 119.975 51.2642 120.293 51.5633C120.612 51.8624 119.719 52.5225 119.719 52.5225C119.719 52.5225 121.599 52.6976 122.187 52.6976C122.774 52.6976 124.01 53.5874 123.202 53.8868C122.394 54.1862 119.259 54.2601 119.259 54.2601C119.259 54.2601 114.499 62.7964 112.019 63.4016C109.538 64.0069 106.121 60.5837 106.121 60.5837L109.088 57.139Z" fill="#FDE7E6"/>
<path d="M84.9043 57.2949C84.9043 57.2949 83.9119 59.2219 83.0126 58.7596C82.1133 58.2973 77.0676 53.251 77.0676 53.251C77.0676 53.251 75.3872 52.275 74.9763 52.4506C74.5654 52.6262 75.5784 53.251 75.5784 53.251C75.5784 53.251 73.1062 53.4412 72.6411 53.6185C72.1761 53.7957 71.6344 54.3394 72.3375 54.5865C73.0407 54.8336 75.7324 55.0094 75.7324 55.0094C75.7324 55.0094 79.4742 62.0215 82.3092 62.8414C85.1442 63.6613 87.5594 60.4307 87.5594 60.4307L84.9043 57.2949Z" fill="#FDE7E6"/>
<path d="M94.0826 51.3935V47.9483C94.0826 47.9483 92.1991 48.0388 91.4334 46.8427C90.6677 45.6466 90.4609 42.2523 90.4609 42.2523L91.0379 40.6785L96.7112 40.4512L99.6917 42.8598L98.304 45.1843L98.0394 45.631L99.3622 50.9136L94.0826 51.3935Z" fill="#FDE7E6"/>
<mask id="mask2_2406_55158" style="mask-type:luminance" maskUnits="userSpaceOnUse" x="90" y="40" width="10" height="12">
<path d="M94.0826 51.3935V47.9483C94.0826 47.9483 92.1991 48.0388 91.4334 46.8427C90.6677 45.6466 90.4609 42.2523 90.4609 42.2523L91.0379 40.6785L96.7112 40.4512L99.6917 42.8598L98.304 45.1843L98.0394 45.631L99.3622 50.9136L94.0826 51.3935Z" fill="white"/>
</mask>
<g mask="url(#mask2_2406_55158)">
<path d="M97.7736 44.6749C96.097 46.6524 93.197 48.0344 92.8194 48.0344C92.4419 48.0344 94.928 50.5146 94.928 50.5146L96.9507 51.394L99.8217 50.8168L100.847 48.0344L99.0373 44.8777C99.0373 44.8777 99.4502 42.6974 97.7736 44.6749Z" fill="url(#paint7_linear_2406_55158)"/>
</g>
<path d="M83.6992 58.6788L86.4872 62.2402L88.2653 60.4595C88.2653 60.4595 86.9129 67.4911 86.4872 70.8635C86.0614 74.2358 85.9823 77.5948 85.9823 77.5948C85.9823 77.5948 90.4465 79.1665 93.7743 79.431C97.1022 79.6954 104.849 79.0145 104.849 79.0145L103.849 59.2212L106.751 61.7758L110.158 58.0451C110.158 58.0451 104.293 49.4979 103.184 48.9999C102.075 48.502 98.9918 48.9999 98.9918 48.9999C98.9918 48.9999 96.804 51.4552 95.9168 51.4895C95.0297 51.5238 93.0618 48.9999 93.0618 48.9999C93.0618 48.9999 89.9177 48.5237 89.0036 49.4979C88.0894 50.472 83.6992 58.6788 83.6992 58.6788Z" fill="url(#paint8_linear_2406_55158)"/>
<path d="M90.4618 42.291C90.4618 42.291 91.1304 40.691 92.0032 40.9698C92.8291 41.2336 93.5445 41.8613 94.5721 42.156C95.5996 42.4507 95.7132 41.1269 96.4114 41.3505C97.1097 41.574 96.6488 43.5214 97.141 43.8841C97.6331 44.2467 97.6331 41.3505 98.6823 42.1302C99.7315 42.9099 97.5877 45.1045 97.5877 45.1045C97.5877 45.1045 97.8625 46.4534 97.9506 46.5452C98.0387 46.6369 98.0287 45.5638 98.0287 45.5638C98.0287 45.5638 99.0307 45.199 99.4577 43.5538C99.8847 41.9086 100.069 41.2536 99.4577 40.0582C98.8461 38.8628 98.6717 37.9266 97.141 37.3627C95.6102 36.7988 94.4487 37.0193 93.3789 37.3627C92.309 37.7061 91.5336 38.3883 91.0388 39.0671C89.8849 40.6786 90.4618 42.291 90.4618 42.291Z" fill="#4D364F"/>
<path fill-rule="evenodd" clip-rule="evenodd" d="M193.616 0.0943138C192.4 0.44677 167.229 14.7289 167.229 14.7289L174.575 15.2484L179.794 20.7191C179.794 20.7191 194.832 -0.258143 193.616 0.0943138Z" fill="#E8EAEB"/>
<mask id="mask3_2406_55158" style="mask-type:luminance" maskUnits="userSpaceOnUse" x="167" y="0" width="27" height="21">
<path fill-rule="evenodd" clip-rule="evenodd" d="M193.616 0.0943138C192.4 0.44677 167.229 14.7289 167.229 14.7289L174.575 15.2484L179.794 20.7191C179.794 20.7191 194.832 -0.258143 193.616 0.0943138Z" fill="white"/>
</mask>
<g mask="url(#mask3_2406_55158)">
<path fill-rule="evenodd" clip-rule="evenodd" d="M174.574 15.2483L193.616 0.0942592L179.794 20.7191L174.574 15.2483Z" fill="#D8DFE6"/>
</g>
<path fill-rule="evenodd" clip-rule="evenodd" d="M189.836 16.6438L181.009 15.7689L193.626 0.241548L189.836 16.6438Z" fill="#E8EAEB"/>
<path fill-rule="evenodd" clip-rule="evenodd" d="M173.584 26.9896C174.135 25.8828 174.691 24.7372 175.25 23.5527L176.163 23.9402C175.601 25.1305 175.043 26.282 174.488 27.3947L173.584 26.9896ZM169.992 33.7414C170.602 32.6751 171.216 31.5582 171.835 30.3908L172.729 30.817C172.105 31.9929 171.486 33.1183 170.871 34.1933L169.992 33.7414ZM168.032 37.0266C167.322 38.1625 166.618 39.2271 165.922 40.2203L166.755 40.7453C167.461 39.7383 168.173 38.66 168.892 37.5104L168.032 37.0266ZM161.043 46.1281C161.886 45.2985 162.742 44.3517 163.611 43.2877L164.402 43.8682C163.512 44.9583 162.632 45.931 161.763 46.7863L161.043 46.1281ZM158.106 48.5788C156.937 49.3732 155.798 49.9226 154.691 50.2297L154.972 51.1399C156.194 50.8011 157.432 50.2034 158.688 49.3496L158.106 48.5788ZM147.639 48.6788C148.739 49.5198 149.857 50.0705 150.995 50.3362L150.756 51.257C149.469 50.9566 148.221 50.3416 147.012 49.4171L147.639 48.6788ZM144.944 45.9853C144.882 45.9083 144.82 45.8304 144.759 45.7515C143.954 44.724 143.369 43.7488 142.996 42.8277L142.062 43.1676C142.47 44.1739 143.099 45.2235 143.956 46.3171C144.02 46.3994 144.085 46.4806 144.15 46.5609L144.944 45.9853ZM144.705 36.4452C143.624 37.2913 142.93 38.2625 142.646 39.3459L141.676 39.1177C142.014 37.8249 142.831 36.6831 144.068 35.714L144.705 36.4452ZM148.045 34.6636C149.171 34.2469 150.436 33.9071 151.808 33.6506L151.614 32.7202C150.187 32.9871 148.865 33.3422 147.682 33.7803L148.045 34.6636ZM159.637 33.1081C158.306 33.0632 156.981 33.084 155.689 33.1702L155.619 32.2242C156.946 32.1356 158.307 32.1143 159.672 32.1603L159.637 33.1081ZM163.617 33.4405C164.958 33.6214 166.254 33.8694 167.479 34.1801L167.738 33.264C166.473 32.9432 165.137 32.6878 163.758 32.5016L163.617 33.4405ZM174.513 37.3053C173.599 36.5997 172.483 35.9662 171.195 35.4156L171.606 34.5511C172.969 35.1338 174.159 35.8092 175.145 36.5698L174.513 37.3053ZM176.896 40.1536C177.138 40.6852 177.292 41.2389 177.357 41.8149C177.426 42.4242 177.45 43.0367 177.429 43.6524L178.428 43.6833C178.451 43.0236 178.425 42.3671 178.351 41.7139C178.276 41.0429 178.096 40.3969 177.815 39.7787L176.896 40.1536ZM175.295 50.7183C175.938 49.567 176.437 48.4279 176.79 47.3008L177.748 47.571C177.376 48.7599 176.852 49.957 176.178 51.1625L175.295 50.7183ZM173.177 53.8891C172.438 54.8446 171.601 55.8077 170.668 56.7784L171.407 57.4172C172.363 56.4225 173.222 55.4336 173.983 54.4504L173.177 53.8891ZM164.926 61.9092C165.987 61.0759 166.981 60.2475 167.908 59.4242L168.591 60.1162C167.65 60.9531 166.64 61.7942 165.563 62.6397L164.926 61.9092ZM161.774 64.2578C160.746 64.9872 159.668 65.7202 158.539 66.4568L159.106 67.2381C160.246 66.4944 161.335 65.7541 162.373 65.0171L161.774 64.2578ZM153.104 69.804C153.814 69.3893 154.509 68.9758 155.188 68.5633L155.727 69.3619C155.043 69.7775 154.343 70.194 153.628 70.6117L153.104 69.804Z" fill="#C7D0D9"/>
<defs>
<radialGradient id="paint0_radial_2406_55158" cx="0" cy="0" r="1" gradientUnits="userSpaceOnUse" gradientTransform="translate(130.111 132.228) rotate(-90) scale(48.6877 536.198)">
<stop stop-color="#EBEDF0" stop-opacity="0.24"/>
<stop offset="0.536775" stop-color="#EBEDF0" stop-opacity="0.845525"/>
<stop offset="1" stop-color="#E0E4E7" stop-opacity="0.01"/>
</radialGradient>
<linearGradient id="paint1_linear_2406_55158" x1="113.46" y1="162.046" x2="115.66" y2="167.008" gradientUnits="userSpaceOnUse">
<stop stop-color="#E1E7EA"/>
<stop offset="1" stop-color="#D0D6DC"/>
</linearGradient>
<linearGradient id="paint2_linear_2406_55158" x1="189.846" y1="134.316" x2="193.876" y2="143.178" gradientUnits="userSpaceOnUse">
<stop stop-color="#E1E7EA"/>
<stop offset="1" stop-color="#D0D6DC"/>
</linearGradient>
<linearGradient id="paint3_linear_2406_55158" x1="50.7703" y1="117.747" x2="53.0207" y2="127.201" gradientUnits="userSpaceOnUse">
<stop stop-color="#FBFBFB"/>
<stop offset="1" stop-color="#D9DFE3"/>
</linearGradient>
<linearGradient id="paint4_linear_2406_55158" x1="112.401" y1="122.963" x2="120.421" y2="160.889" gradientUnits="userSpaceOnUse">
<stop stop-color="#C4CDD1"/>
<stop offset="1" stop-color="#C6CFD3" stop-opacity="0.01"/>
</linearGradient>
<linearGradient id="paint5_linear_2406_55158" x1="85.5883" y1="126.762" x2="94.9686" y2="152.577" gradientUnits="userSpaceOnUse">
<stop stop-color="#C4CDD1"/>
<stop offset="1" stop-color="#C6CFD3" stop-opacity="0.01"/>
</linearGradient>
<linearGradient id="paint6_linear_2406_55158" x1="105.786" y1="116.541" x2="104.466" y2="76.688" gradientUnits="userSpaceOnUse">
<stop stop-color="#A1A7B8"/>
<stop offset="1" stop-color="#7B8195"/>
</linearGradient>
<linearGradient id="paint7_linear_2406_55158" x1="98.5681" y1="49.0807" x2="98.5681" y2="45.7426" gradientUnits="userSpaceOnUse">
<stop stop-color="#FBD8D6"/>
<stop offset="1" stop-color="#EAC0BE" stop-opacity="0.7"/>
</linearGradient>
<linearGradient id="paint8_linear_2406_55158" x1="70.3142" y1="62.793" x2="96.5834" y2="92.0142" gradientUnits="userSpaceOnUse">
<stop stop-color="#E5E9F0"/>
<stop offset="1" stop-color="#D2DAE8"/>
</linearGradient>
</defs>
</svg>
