<svg width="121" height="120" viewBox="0 0 121 120" fill="none" xmlns="http://www.w3.org/2000/svg">
<rect x="1.5" y="1" width="118" height="118" rx="59" fill="#FF3B30" fill-opacity="0.1"/>
<rect x="1.5" y="1" width="118" height="118" rx="59" stroke="#FF3B30" stroke-width="2"/>
<path d="M60.5 35C46.725 35 35.5 46.225 35.5 60C35.5 73.775 46.725 85 60.5 85C74.275 85 85.5 73.775 85.5 60C85.5 46.225 74.275 35 60.5 35ZM68.9 65.75C69.625 66.475 69.625 67.675 68.9 68.4C68.525 68.775 68.05 68.95 67.575 68.95C67.1 68.95 66.625 68.775 66.25 68.4L60.5 62.65L54.75 68.4C54.375 68.775 53.9 68.95 53.425 68.95C52.95 68.95 52.475 68.775 52.1 68.4C51.375 67.675 51.375 66.475 52.1 65.75L57.85 60L52.1 54.25C51.375 53.525 51.375 52.325 52.1 51.6C52.825 50.875 54.025 50.875 54.75 51.6L60.5 57.35L66.25 51.6C66.975 50.875 68.175 50.875 68.9 51.6C69.625 52.325 69.625 53.525 68.9 54.25L63.15 60L68.9 65.75Z" fill="#FF3B30"/>
</svg>
