<svg width="322" height="96" viewBox="0 0 322 96" fill="none" xmlns="http://www.w3.org/2000/svg">
<path d="M14.0464 4.43091H21.6156V45.6001H14.0464V4.43091Z" fill="white"/>
<path d="M30.8462 14.7693H37.677V17.5385C38.6 16.2462 39.8923 15.3232 41.3693 14.5847C42.8462 13.8462 44.5077 13.6616 46.1693 13.6616C47.8308 13.6616 49.3077 14.0309 50.9693 14.5847C52.4462 15.3232 53.9231 16.2462 55.0308 17.3539L55.7693 18.277C56.877 19.7539 57.6154 21.4155 57.8 23.077C58.1693 24.7385 58.1693 26.9539 58.1693 29.3539V45.2309H50.7846V30.6462C50.7846 28.8001 50.7847 27.1385 50.6 26.2155C50.4154 25.1078 50.0462 24.1847 49.4923 23.2616C48.9385 22.3385 48.2 21.7847 47.277 21.2309C46.3539 20.8616 45.4308 20.4924 44.5077 20.4924C43.4 20.4924 42.477 20.677 41.5539 21.2309C40.6308 21.7847 39.8923 22.3385 39.5231 23.077C39.1539 23.8155 38.7847 24.7385 38.6 25.6616C38.4154 26.7693 38.2308 28.2462 38.2308 30.0924V31.0155V45.0462H30.8462V14.7693Z" fill="white"/>
<path d="M66.2926 21.4155H63.708V14.7694H66.2926C66.2926 11.6309 67.2157 9.04627 69.0619 6.83089C70.908 4.6155 73.308 3.50781 76.4465 3.50781H78.4772V10.8924C76.6311 10.8924 75.5234 11.077 74.7849 11.4463C74.0465 11.8155 73.8619 12.9232 73.8619 14.5847H78.108V21.2309H73.8619V45.4155H66.4772V21.4155H66.2926Z" fill="white"/>
<path d="M83.6465 14.7693H90.4773V17.5385C91.4003 16.2462 92.3234 15.3232 93.4311 14.5847C94.5388 14.0309 95.8311 13.6616 97.308 13.6616H97.8619V20.8616C96.2003 20.8616 94.7234 21.2309 93.6157 22.1539C92.508 23.077 91.7696 24.0001 91.585 24.9232C91.4003 25.8462 91.2157 27.3232 91.2157 28.8001V45.4155H83.8311V14.7693H83.6465Z" fill="white"/>
<path d="M134.6 45.6H127.769V41.3539C126.662 43.0154 125 44.1231 123.154 45.0462C121.123 45.9693 119.277 46.3385 117.246 46.3385C114.846 46.3385 112.816 45.9693 110.785 45.0462C108.939 44.1231 106.908 42.4616 104.877 40.2462C102.846 37.8462 101.923 34.5231 101.923 30.0923C101.923 27.877 102.293 25.8462 102.846 24.1847C103.4 22.3385 104.877 20.3077 107.093 17.7231C109.308 15.1385 112.816 13.8462 117.246 13.8462C121.677 13.8462 125 15.6923 127.585 19.2V14.7693H134.416V45.6H134.6ZM118.723 21.0462C115.954 21.0462 113.739 21.9693 112.077 23.6308C110.416 25.477 109.493 27.6923 109.493 30.4616C109.493 33.0462 110.416 35.077 112.077 36.7385C113.923 38.4 115.954 39.3231 118.539 39.3231C121.123 39.3231 123.339 38.4 125 36.7385C126.662 35.077 127.585 32.8616 127.585 30.0923C127.585 27.5077 126.846 25.2923 125.185 23.6308C123.523 21.9693 121.308 21.0462 118.723 21.0462Z" fill="white"/>
<path d="M181.123 34.3385C179.646 38.0308 177.062 40.9847 173.554 43.2001C170.046 45.4155 166.169 46.5232 162.108 46.5232C156.2 46.5232 151.215 44.3078 146.969 40.0616C142.723 35.8155 140.692 30.8308 140.692 24.9232C140.692 19.0155 142.723 14.0308 146.969 9.96931C151.215 5.72315 156.015 3.69238 161.923 3.69238C166.169 3.69238 170.046 4.80007 173.739 7.01546C177.431 9.23084 180.015 12.3693 181.492 16.2462H172.815C171.523 14.5847 169.862 13.477 168.015 12.5539C166.169 11.6308 164.139 11.2616 162.108 11.2616C158.415 11.2616 155.092 12.7385 152.508 15.5078C149.923 18.277 148.631 21.6001 148.631 25.477C148.631 29.1693 149.923 32.3078 152.692 35.2616C155.462 38.0308 158.6 39.5078 162.292 39.5078C164.323 39.5078 166.169 39.1385 167.831 38.2155C169.492 37.477 171.154 36.1847 172.631 34.7078H181.123V34.3385Z" fill="white"/>
<path d="M187.4 14.7693H194.231V17.5385C195.154 16.2462 196.077 15.3232 197.185 14.5847C198.293 14.0309 199.585 13.6616 201.062 13.6616H201.616V20.8616C199.954 20.8616 198.477 21.2309 197.37 22.1539C196.262 23.077 195.523 24.0001 195.339 24.9232C195.154 25.8462 194.97 27.3232 194.97 28.8001V45.4155H187.585V14.7693H187.4Z" fill="white"/>
<path d="M213.616 33.6002C214.17 35.4464 215.277 36.7387 216.754 37.8464C218.231 38.9541 219.893 39.5079 221.739 39.5079C224.693 39.5079 227.093 38.5849 228.57 36.9233H236.693C235.77 39.6925 233.739 41.9079 230.97 43.9387C228.2 45.7848 225.062 46.8925 221.923 46.8925C217.493 46.8925 213.616 45.231 210.477 42.0925C207.339 38.9541 205.677 35.0772 205.677 30.6464C205.677 26.031 207.339 22.1541 210.477 18.831C213.616 15.5079 217.493 14.031 222.108 14.031C226.539 14.031 230.231 15.6925 233.37 18.831C236.508 21.9695 237.985 25.8464 237.985 30.2772C237.985 30.831 237.985 31.3848 237.8 32.1233C237.616 32.8618 237.616 33.4156 237.616 33.7848H213.616V33.6002ZM230.6 26.9541C230.046 25.1079 228.939 23.8156 227.462 22.7079C225.985 21.6002 224.139 21.0464 222.293 21.0464C220.446 21.0464 218.6 21.6002 216.939 22.7079C215.277 23.8156 214.17 25.2925 213.616 26.9541H230.6Z" fill="white"/>
<path d="M275.831 45.6001H269V41.354C267.893 43.0155 266.416 44.3078 264.57 45.0463C262.723 45.9694 260.693 46.3386 258.662 46.3386C256.447 46.3386 254.416 45.9694 252.57 45.0463C250.723 44.1232 249.062 42.8309 247.77 41.354C246.477 39.6924 245.37 38.0309 244.631 36.1848C243.893 34.3386 243.523 32.3078 243.523 30.2771C243.523 25.8463 244.631 22.5232 246.662 20.1232C248.693 17.7232 250.908 16.0617 252.939 15.1386C254.97 14.2155 257 13.6617 259.216 13.6617C261.062 13.6617 262.908 14.0309 264.57 14.7694C266.231 15.5078 267.708 16.4309 268.816 17.9078V4.43091H276.2V45.6001H275.831ZM259.77 21.0463C257.37 21.0463 255.339 21.9694 253.493 23.6309C251.647 25.4771 250.723 27.5078 250.723 29.9078C250.723 32.4925 251.647 34.7078 253.308 36.554C254.97 38.4001 257.185 39.3232 259.77 39.3232C262.354 39.3232 264.57 38.4001 266.231 36.554C268.077 34.7078 269 32.4924 269 30.0924C269 27.5078 268.077 25.4771 266.231 23.6309C264.57 21.9694 262.354 21.0463 259.77 21.0463Z" fill="white"/>
<path d="M283.4 4.43091H290.785V11.2617H283.4V4.43091ZM283.4 14.7694H290.785V45.6001H283.4V14.7694Z" fill="white"/>
<path d="M299.831 21.4155H296.139V14.7694H299.831V4.43091H307.216V14.7694H311.646V21.4155H307.216V45.6001H299.831V21.4155Z" fill="white"/>
<path d="M73.1234 86.9539C70.7234 85.8462 68.508 84.3693 66.2926 83.077C64.0772 81.6 62.0465 79.9385 60.0157 78.277C57.9849 76.6154 56.1388 74.7693 54.2926 72.7385C53.3696 71.8154 52.6311 70.7077 51.708 69.7847C51.5234 69.6 51.3388 69.2308 51.1542 69.0462C50.9696 68.8616 50.7849 68.4923 50.6003 68.3077C50.2311 67.9385 49.8619 67.5693 49.6772 67.2C48.3849 65.7231 47.0926 64.2462 45.9849 62.5847C44.6926 60.7385 43.7696 59.077 42.8465 57.2308C42.4772 56.4923 42.108 55.5693 41.7388 54.8308H13.6772C14.0465 55.7539 14.4157 56.4923 14.7849 57.4154C15.8926 59.8154 17.1849 62.0308 18.6619 64.4308C20.1388 66.6462 21.6157 68.8616 23.4619 70.7077C25.1234 72.7385 26.9696 74.5847 29.0003 76.4308C30.8465 78.277 32.8772 79.9385 35.0926 81.4154C37.1234 82.8923 39.3388 84.3693 41.7388 85.6616C43.9542 86.9539 46.3542 88.0616 48.7542 89.1693C51.1542 90.0923 53.7388 91.0154 56.1388 91.7539C58.7234 92.4923 61.308 93.0462 63.8926 93.4154C65.0003 93.6 66.108 93.7847 67.2157 93.7847C67.9542 93.7847 68.8772 93.9693 69.6157 93.9693C70.3542 93.9693 71.2772 93.9693 72.0157 94.1539C72.3849 94.1539 72.9388 94.1539 73.308 94.1539C73.6772 94.1539 74.0465 94.1539 74.2311 94.1539C74.9695 94.1539 75.708 94.1539 76.4465 94.1539C77.3695 94.1539 78.108 94.1539 79.0311 93.9693C80.1388 93.9693 81.0619 93.7847 82.1695 93.6C84.0157 93.4154 85.8619 93.0462 87.708 92.4923C85.1234 91.9385 82.5388 91.2 80.1388 90.277C77.9234 89.1693 75.5234 88.0616 73.1234 86.9539Z" fill="white"/>
<path opacity="0.12" d="M29.0003 76.4309C30.8465 78.277 32.8772 79.9386 35.0926 81.4155C37.1234 82.8924 39.3388 84.3693 41.7388 85.6616C43.9542 86.954 46.3542 88.0616 48.7542 89.1693C51.1542 90.0924 53.7388 91.0155 56.1388 91.754C58.7234 92.4924 61.308 93.0463 63.8926 93.4155C65.0003 93.6001 66.108 93.7847 67.2157 93.7847C67.9542 93.7847 68.8772 93.9693 69.6157 93.9693C70.3542 93.9693 71.2772 93.9693 72.0157 94.154C72.3849 94.154 72.9388 94.154 73.308 94.154C73.6772 94.154 74.0465 94.154 74.2311 94.154C74.9696 94.154 75.708 94.154 76.4465 94.154C77.3696 94.154 78.108 94.154 79.0311 93.9693C80.1388 93.9693 81.0619 93.7847 82.1696 93.6001C84.0157 93.4155 85.8619 93.0463 87.708 92.4924C85.1234 91.9386 82.5388 91.2001 80.1388 90.277C77.7388 89.354 75.3388 88.4309 72.9388 87.1386C70.5388 86.0309 68.3234 84.554 66.108 83.2616C63.8926 81.7847 61.8619 80.1232 59.8311 78.4616C57.8003 76.8001 55.9542 74.954 54.108 72.9232C53.1849 72.0001 52.4465 70.8924 51.5234 69.9693C51.3388 69.7847 51.1542 69.4155 50.9696 69.2309C50.7849 69.0463 50.6003 68.677 50.4157 68.4924C50.0465 68.1232 49.8619 67.9386 49.4926 67.5693C41.0003 68.8616 33.0619 70.8924 25.6772 73.477C26.7849 74.2155 27.8926 75.3232 29.0003 76.4309Z" fill="white"/>
<path d="M106.17 54.8308C105.431 56.4923 104.693 57.9693 103.77 59.4462C102.847 61.1077 101.739 62.7693 100.447 64.2462C99.3389 65.7231 98.0466 67.0154 96.7542 68.3077C95.2773 69.6 93.8004 70.8923 92.1389 72C90.1081 73.477 87.8927 74.5847 85.4927 75.5077C83.0927 76.4308 80.6927 76.9847 78.2927 77.1693C75.7081 77.3539 73.3081 77.3539 70.7235 76.9847C68.3235 76.6154 65.9235 75.877 63.7081 74.7693C61.4927 73.8462 59.4619 72.5539 57.6158 71.2616C56.1389 70.1539 54.6619 68.8616 53.3696 67.5693C54.8466 69.6 56.6927 71.6308 58.3542 73.2923C60.2004 75.1385 62.0466 76.8 64.0773 78.4616C66.1081 80.1231 68.1389 81.6 70.3542 82.8924C72.5696 84.1847 74.785 85.477 77.0004 86.5847C79.4004 87.6924 81.6158 88.6154 84.2004 89.3539C85.4927 89.7231 86.6004 90.0923 87.8927 90.4616C88.2619 90.4616 88.4466 90.6462 88.8158 90.6462C89.0004 90.6462 89.185 90.6462 89.185 90.8308H89.3696H89.5542C90.1081 90.6462 90.8465 90.4616 91.4004 90.277C93.8004 89.5385 96.2004 88.8 98.6004 87.877C100.816 86.9539 103.031 85.8462 105.247 84.7385C107.277 83.6308 109.493 82.3385 111.339 80.8616C113.37 79.3847 115.216 77.9077 117.062 76.4308C118.723 74.9539 120.385 73.2923 121.862 71.6308C123.339 70.1539 124.631 68.4923 125.739 66.8308C127.031 65.1693 128.139 63.3231 129.247 61.6616C130.354 59.8154 131.277 57.9693 132.2 56.1231C132.385 55.7539 132.57 55.3847 132.754 55.0154H106.17V54.8308Z" fill="white"/>
<path opacity="0.12" d="M58.5389 73.2925C60.385 75.1386 62.2312 76.8001 64.2619 78.4617C66.2927 80.1232 68.3235 81.6002 70.5389 82.8925C72.7542 84.1848 74.9696 85.4771 77.185 86.5848C79.585 87.6925 81.8004 88.6155 84.385 89.354C85.6773 89.7232 86.785 90.0925 88.0773 90.4617C88.4465 90.4617 88.6312 90.6463 89.0004 90.6463C89.185 90.6463 89.3696 90.6463 89.3696 90.8309H89.5542H89.7389C90.2927 90.6463 91.0312 90.4617 91.585 90.2771C93.985 89.5386 96.385 88.8001 98.785 87.8771C101 86.954 103.216 85.8463 105.431 84.7386C107.462 83.6309 109.677 82.3386 111.523 80.8617C113.554 79.3848 115.4 77.9078 117.247 76.4309C118.354 75.3232 119.647 74.2155 120.754 73.1078C113.554 70.7078 105.8 68.6771 97.6773 67.3848C97.3081 67.754 97.1235 67.9386 96.7542 68.3078C95.2773 69.6002 93.8004 70.8925 92.1389 72.0002C90.1081 73.4771 87.8927 74.5848 85.4927 75.5078C83.0927 76.4309 80.6927 76.9848 78.2927 77.1694C75.7081 77.354 73.3081 77.354 70.7235 76.9848C68.3235 76.6155 65.9235 75.8771 63.7081 74.7694C61.4927 73.8463 59.4619 72.554 57.6158 71.2617C56.1389 70.154 54.6619 68.8617 53.3696 67.5694C55.2158 69.4155 56.8773 71.4463 58.5389 73.2925Z" fill="white"/>
<path d="M150.292 59.6308C149.185 59.2616 148.631 58.5231 148.631 57.7846C148.631 56.6769 149.554 55.9385 151.031 55.9385C151.585 55.9385 152.139 56.1231 152.692 56.1231L153.246 56.3077C153.246 56.3077 153.246 56.3077 153.246 56.4923L153.062 56.8616C153.062 56.8616 153.062 56.8616 152.877 56.8616L152.323 56.6769C151.769 56.4923 151.4 56.4923 150.846 56.4923C149.923 56.4923 149.185 57.0462 149.185 57.7846C149.185 58.3385 149.369 58.7077 150.292 59.0769L151.769 59.6308C152.692 60 153.431 60.5539 153.431 61.4769C153.431 62.7692 152.323 63.5077 150.846 63.5077C150.108 63.5077 149.369 63.3231 148.816 63.1385L148.446 62.9539C148.446 62.9539 148.446 62.9539 148.446 62.7692L148.631 62.4C148.631 62.4 148.631 62.4 148.816 62.4L149.185 62.5846C149.739 62.7693 150.292 62.9539 151.031 62.9539C151.954 62.9539 152.877 62.4 152.877 61.6616C152.877 61.1077 152.323 60.7385 151.769 60.3692L150.292 59.6308Z" fill="white"/>
<path d="M158.785 63.3231C158.415 63.5077 158.046 63.5077 157.677 63.5077C156.2 63.5077 155.277 62.4 155.277 60.7385C155.277 59.0769 156.2 57.9692 157.677 57.9692C158.969 57.9692 159.708 58.5231 159.708 59.6308C159.708 60.3692 159.154 60.7385 158.231 60.9231L156.2 61.2923C156.385 62.2154 156.938 62.7692 157.861 62.7692C158.231 62.7692 158.6 62.7692 158.785 62.5846L159.154 62.4H159.338L159.523 62.7692V62.9539L158.785 63.3231ZM158.046 60.5539C158.6 60.3692 158.969 60.1846 158.969 59.8154C158.969 59.2615 158.415 58.8923 157.677 58.8923C156.754 58.8923 156.015 59.6308 156.015 60.9231L158.046 60.5539Z" fill="white"/>
<path d="M164.692 63.3231C164.323 63.5077 163.954 63.5077 163.585 63.5077C161.923 63.5077 161.185 62.4 161.185 60.7385C161.185 59.0769 162.108 57.9692 163.585 57.9692C163.954 57.9692 164.138 57.9692 164.508 58.1539L164.877 58.3385C164.877 58.3385 164.877 58.3385 164.877 58.5231L164.692 58.8923C164.692 58.8923 164.692 58.8923 164.508 58.8923H164.138C163.769 58.7077 163.585 58.7077 163.4 58.7077C162.292 58.7077 161.554 59.4462 161.554 60.7385C161.554 62.0308 162.108 62.7692 163.215 62.7692C163.4 62.7692 163.769 62.7692 164.138 62.5846H164.508H164.692L164.877 62.9539V63.1385L164.692 63.3231Z" fill="white"/>
<path d="M170.785 62.5846C170.231 63.1385 169.677 63.5077 168.938 63.5077C167.831 63.5077 167.092 62.7692 167.092 61.4769V58.3385C167.092 58.3385 167.092 58.1539 167.277 58.1539H167.831C167.831 58.1539 168.015 58.1539 168.015 58.3385V61.2923C168.015 62.2154 168.569 62.7692 169.308 62.7692C170.415 62.7692 170.969 62.0308 170.969 60.5539V58.1539C170.969 58.1539 170.969 57.9692 171.154 57.9692H171.708C171.708 57.9692 171.892 57.9692 171.892 58.1539V63.1385C171.892 63.1385 171.892 63.3231 171.708 63.3231H171.338C171.338 63.3231 171.154 63.3231 171.154 63.1385L170.785 62.5846Z" fill="white"/>
<path d="M176.138 58.7077C174.846 58.8923 174.292 59.8154 174.292 61.6615V63.3231C174.292 63.3231 174.292 63.5077 174.108 63.5077H173.554C173.554 63.5077 173.369 63.5077 173.369 63.3231V58.3385C173.369 58.3385 173.369 58.1539 173.554 58.1539H173.923C173.923 58.1539 174.108 58.1539 174.108 58.3385V59.0769C174.108 59.0769 174.108 59.2615 174.292 59.0769C174.661 58.5231 175.215 58.1539 176.138 57.9692C176.138 57.9692 176.323 57.9692 176.323 58.1539V58.7077H176.138Z" fill="white"/>
<path d="M179.277 63.3232L178.723 63.5078C178.723 63.5078 178.539 63.5078 178.539 63.3232V58.8924H177.985C177.985 58.8924 177.8 58.8924 177.8 58.7078V58.3386C177.8 58.3386 177.8 58.154 177.985 58.154H179.093C179.093 58.154 179.277 58.154 179.277 58.3386V63.3232ZM179.277 56.1232C179.277 56.4924 179.093 56.677 178.723 56.677C178.354 56.677 178.17 56.4924 178.17 56.1232C178.17 55.7539 178.354 55.5693 178.723 55.5693C179.093 55.5693 179.277 55.9386 179.277 56.1232Z" fill="white"/>
<path d="M182.046 59.0771C182.6 58.5233 183.154 58.1541 183.892 58.1541C185 58.1541 185.738 58.8925 185.738 60.1848V63.3233C185.738 63.3233 185.738 63.5079 185.554 63.5079H185C185 63.5079 184.815 63.5079 184.815 63.3233V60.3694C184.815 59.4464 184.262 58.8925 183.523 58.8925C182.415 58.8925 181.862 59.631 181.862 61.1079V63.5079C181.862 63.5079 181.862 63.6925 181.677 63.6925H181.123C181.123 63.6925 180.938 63.6925 180.938 63.5079V58.5233C180.938 58.5233 180.938 58.3387 181.123 58.3387H181.492C181.492 58.3387 181.677 58.3387 181.677 58.5233L182.046 59.0771Z" fill="white"/>
<path d="M188.693 64.9848C188.877 64.9848 189.431 65.1694 189.8 65.1694C190.908 65.1694 191.462 64.6156 191.646 63.6925C191.646 62.7694 191.646 63.1387 191.646 62.7694C191.646 62.7694 191.646 62.5848 191.462 62.7694C191.093 63.3233 190.539 63.6925 189.8 63.6925C188.508 63.6925 187.585 62.5848 187.585 60.9233C187.585 59.2617 188.508 58.1541 189.985 58.1541C190.539 58.1541 190.908 58.3387 191.277 58.5233L192.016 58.8925C192.016 58.8925 192.016 58.8925 192.016 59.0771V63.6925C192.016 65.1694 191.277 65.9079 189.616 65.9079C189.246 65.9079 188.693 65.9079 188.323 65.7233L187.77 65.5387C187.77 65.5387 187.77 65.5387 187.77 65.3541L187.954 64.9848C187.954 64.9848 187.954 64.9848 188.139 64.9848H188.693ZM191.093 59.0771C190.908 58.8925 190.354 58.8925 189.985 58.8925C188.877 58.8925 188.323 59.631 188.323 60.9233C188.323 62.2156 188.877 62.954 189.8 62.954C190.908 62.954 191.462 62.031 191.462 60.7387V59.2617L191.093 59.0771Z" fill="white"/>
<path d="M198.108 63.3231L197.554 63.5077C197.554 63.5077 197.369 63.5077 197.369 63.3231V56.1231C197.369 56.1231 197.369 55.9385 197.554 55.9385H198.108C198.108 55.9385 198.292 55.9385 198.292 56.1231V63.3231H198.108Z" fill="white"/>
<path d="M200.877 59.0771C201.062 59.0771 201.062 59.0771 200.877 59.0771C201.431 58.5233 201.985 58.1541 202.723 58.1541C203.831 58.1541 204.57 58.8925 204.57 60.1848V63.3233C204.57 63.3233 204.57 63.5079 204.385 63.5079H203.831C203.831 63.5079 203.646 63.5079 203.646 63.3233V60.3694C203.646 59.4464 203.093 58.8925 202.354 58.8925C201.246 58.8925 200.693 59.631 200.693 61.1079V63.5079C200.693 63.5079 200.693 63.6925 200.508 63.6925H199.954C199.954 63.6925 199.77 63.6925 199.77 63.5079V58.5233C199.77 58.5233 199.77 58.3387 199.954 58.3387H200.323C200.323 58.3387 200.508 58.3387 200.508 58.5233L200.877 59.0771Z" fill="white"/>
<path d="M207.154 57.2309C207.154 56.3078 207.708 55.5693 208.631 55.5693C208.816 55.5693 209 55.5693 209.185 55.754H209.369C209.369 55.754 209.369 55.7539 209.369 55.9386L209.185 56.3078C209.185 56.3078 209.185 56.3078 209 56.3078H208.816C208.631 56.3078 208.631 56.3078 208.446 56.3078C207.893 56.3078 207.708 56.677 207.708 57.2309V58.154H208.816C208.816 58.154 209 58.154 209 58.3386V58.7078C209 58.7078 209 58.8924 208.816 58.8924H207.708V63.3232C207.708 63.3232 207.708 63.5078 207.523 63.5078H206.969C206.969 63.5078 206.785 63.5078 206.785 63.3232V58.8924H206.231C206.231 58.8924 206.046 58.8924 206.046 58.7078V58.3386C206.046 58.3386 206.046 58.154 206.231 58.154H206.785V57.2309H207.154Z" fill="white"/>
<path d="M213.615 58.7077C212.323 58.8923 211.769 59.8154 211.769 61.6615V63.3231C211.769 63.3231 211.769 63.5077 211.585 63.5077H211.031C211.031 63.5077 210.846 63.5077 210.846 63.3231V58.3385C210.846 58.3385 210.846 58.1539 211.031 58.1539H211.4C211.4 58.1539 211.585 58.1539 211.585 58.3385V59.0769C211.585 59.0769 211.585 59.2615 211.769 59.0769C212.138 58.5231 212.692 58.1539 213.615 57.9692C213.615 57.9692 213.8 57.9692 213.8 58.1539V58.7077H213.615Z" fill="white"/>
<path d="M215.831 58.3387C216.2 58.1541 216.569 58.1541 216.938 58.1541C218.231 58.1541 219.154 58.8925 219.154 60.1848V63.3233C219.154 63.3233 219.154 63.5079 218.969 63.5079H218.6C218.6 63.5079 218.415 63.5079 218.415 63.3233V62.7694C218.415 62.5848 218.231 62.5848 218.231 62.7694C217.862 63.3233 217.308 63.5079 216.569 63.5079C215.462 63.5079 214.908 62.9541 214.908 62.031C214.908 61.1079 215.646 60.3694 216.754 60.3694H218.415V60.1848C218.415 59.2617 217.862 58.7079 216.938 58.7079C216.569 58.7079 216.2 58.7079 216.015 58.8925L215.646 59.0771H215.462L215.277 58.7079V58.5233L215.831 58.3387ZM216.754 60.9233C216.015 60.9233 215.646 61.2925 215.646 61.8464C215.646 62.4002 216.015 62.7694 216.754 62.7694C217.862 62.7694 218.415 62.2156 218.415 60.9233H216.754Z" fill="white"/>
<path d="M222.292 60.9233C221.554 60.7387 221.185 60.3694 221.185 59.631C221.185 58.7079 221.923 58.1541 223.031 58.1541C223.585 58.1541 223.954 58.1541 224.323 58.3387L224.692 58.5233C224.692 58.5233 224.692 58.5233 224.692 58.7079L224.508 59.0771C224.508 59.0771 224.508 59.0771 224.323 59.0771L223.954 58.8925C223.585 58.8925 223.215 58.7079 222.846 58.7079C222.108 58.7079 221.738 59.0771 221.738 59.4464C221.738 59.8156 221.923 60.0002 222.477 60.1848L223.769 60.5541C224.692 60.7387 225.062 61.2925 225.062 61.8464C225.062 62.7694 224.323 63.3233 223.031 63.3233C222.477 63.3233 221.923 63.3233 221.369 63.1387L221 62.9541C221 62.9541 221 62.9541 221 62.7694L221.185 62.4002C221.185 62.4002 221.185 62.4002 221.369 62.4002L221.738 62.5848C222.108 62.7694 222.662 62.7694 223.215 62.7694C223.954 62.7694 224.508 62.4002 224.508 61.8464C224.508 61.4771 224.323 61.2925 223.769 61.1079L222.292 60.9233Z" fill="white"/>
<path d="M228.939 58.3385C229.123 58.3385 229.123 58.3385 228.939 58.3385L229.123 58.8923C229.123 58.8923 229.123 59.077 228.939 59.077H227.831V62.4C227.831 62.9539 228.015 63.1385 228.385 63.1385C228.385 63.1385 228.569 63.1385 228.754 63.1385H228.939L229.123 63.5077V63.6923C228.939 63.6923 228.754 63.877 228.569 63.877C227.831 63.877 227.277 63.3231 227.277 62.5847V59.2616H226.723C226.723 59.2616 226.539 59.2616 226.539 59.077V58.7077C226.539 58.7077 226.539 58.5231 226.723 58.5231H227.277V57.2308V57.0462L227.831 56.8616H228.016V58.3385H228.939Z" fill="white"/>
<path d="M233.554 58.7077C232.262 58.8923 231.708 59.8154 231.708 61.6615V63.3231C231.708 63.3231 231.708 63.5077 231.523 63.5077H230.969C230.969 63.5077 230.785 63.5077 230.785 63.3231V58.3385C230.785 58.3385 230.785 58.1539 230.969 58.1539H231.339C231.339 58.1539 231.523 58.1539 231.523 58.3385V59.0769C231.523 59.0769 231.523 59.2615 231.708 59.0769C232.077 58.5231 232.631 58.1539 233.554 57.9692C233.554 57.9692 233.739 57.9692 233.739 58.1539V58.7077H233.554Z" fill="white"/>
<path d="M239.277 62.5846C238.723 63.1385 238.17 63.5077 237.431 63.5077C236.323 63.5077 235.585 62.7692 235.585 61.4769V58.3385C235.585 58.3385 235.585 58.1539 235.77 58.1539H236.323C236.323 58.1539 236.508 58.1539 236.508 58.3385V61.2923C236.508 62.2154 237.062 62.7692 237.8 62.7692C238.908 62.7692 239.462 62.0308 239.462 60.5539V58.1539C239.462 58.1539 239.462 57.9692 239.647 57.9692H240.2C240.2 57.9692 240.385 57.9692 240.385 58.1539V63.1385C240.385 63.1385 240.385 63.3231 240.2 63.3231H239.831C239.831 63.3231 239.647 63.3231 239.647 63.1385L239.277 62.5846Z" fill="white"/>
<path d="M245.185 63.3231C244.816 63.5077 244.446 63.5077 244.077 63.5077C242.416 63.5077 241.677 62.4 241.677 60.7385C241.677 59.0769 242.6 57.9692 244.077 57.9692C244.446 57.9692 244.631 57.9692 245 58.1539L245.37 58.3385C245.37 58.3385 245.37 58.3385 245.37 58.5231L245.185 58.8923C245.185 58.8923 245.185 58.8923 245 58.8923H244.631C244.262 58.7077 244.077 58.7077 243.893 58.7077C242.785 58.7077 242.046 59.4462 242.046 60.7385C242.046 62.0308 242.6 62.7692 243.708 62.7692C243.893 62.7692 244.262 62.7692 244.631 62.5846H245H245.185L245.37 62.9539V63.1385L245.185 63.3231Z" fill="white"/>
<path d="M249.8 58.3385L249.985 58.8923C249.985 58.8923 249.985 59.077 249.8 59.077H248.693V62.4C248.693 62.9539 248.877 63.1385 249.247 63.1385C249.247 63.1385 249.431 63.1385 249.616 63.1385H249.8L249.985 63.5077V63.6923C249.8 63.6923 249.616 63.877 249.431 63.877C248.693 63.877 248.139 63.3231 248.139 62.5847V59.2616H247.585C247.585 59.2616 247.4 59.2616 247.4 59.077V58.7077C247.4 58.7077 247.4 58.5231 247.585 58.5231H248.139V57.2308V57.0462L248.693 56.8616H248.877V58.3385H249.8Z" fill="white"/>
<path d="M255.523 62.5846C254.97 63.1385 254.416 63.5077 253.677 63.5077C252.57 63.5077 251.831 62.7692 251.831 61.4769V58.3385C251.831 58.3385 251.831 58.1539 252.016 58.1539H252.57C252.57 58.1539 252.754 58.1539 252.754 58.3385V61.2923C252.754 62.2154 253.308 62.7692 254.046 62.7692C255.154 62.7692 255.708 62.0308 255.708 60.5539V58.1539C255.708 58.1539 255.708 57.9692 255.893 57.9692H256.446C256.446 57.9692 256.631 57.9692 256.631 58.1539V63.1385C256.631 63.1385 256.631 63.3231 256.446 63.3231H256.077C256.077 63.3231 255.893 63.3231 255.893 63.1385L255.523 62.5846Z" fill="white"/>
<path d="M260.877 58.7077C259.585 58.8923 259.031 59.8154 259.031 61.6615V63.3231C259.031 63.3231 259.031 63.5077 258.846 63.5077H258.293C258.293 63.5077 258.108 63.5077 258.108 63.3231V58.3385C258.108 58.3385 258.108 58.1539 258.293 58.1539H258.662C258.662 58.1539 258.846 58.1539 258.846 58.3385V59.0769C258.846 59.0769 258.846 59.2615 259.031 59.0769C259.4 58.5231 259.954 58.1539 260.877 57.9692C260.877 57.9692 261.062 57.9692 261.062 58.1539V58.7077H260.877Z" fill="white"/>
<path d="M265.862 63.3231C265.492 63.5077 265.123 63.5077 264.754 63.5077C263.277 63.5077 262.354 62.4 262.354 60.7385C262.354 59.0769 263.277 57.9692 264.754 57.9692C266.046 57.9692 266.785 58.5231 266.785 59.6308C266.785 60.3692 266.231 60.7385 265.308 60.9231L263.277 61.2923C263.462 62.2154 264.016 62.7692 264.939 62.7692C265.308 62.7692 265.677 62.7692 265.862 62.5846L266.231 62.4H266.416L266.6 62.7692V62.9539L265.862 63.3231ZM265.123 60.5539C265.677 60.3692 266.046 60.1846 266.046 59.8154C266.046 59.2615 265.492 58.8923 264.754 58.8923C263.831 58.8923 263.092 59.6308 263.092 60.9231L265.123 60.5539Z" fill="white"/>
<path d="M275.647 59.4462L275.831 60C275.831 60 275.831 60.1846 275.647 60.1846H272.323V63.3231C272.323 63.3231 272.323 63.5077 272.139 63.5077H271.77C271.77 63.5077 271.585 63.5077 271.585 63.3231V56.1231C271.585 56.1231 271.585 55.9385 271.77 55.9385H276.385C276.385 55.9385 276.57 55.9385 276.385 56.1231L276.2 56.4923C276.2 56.4923 276.2 56.4923 276.016 56.4923H272.139V59.4462H275.647Z" fill="white"/>
<path d="M279.339 63.3232L278.785 63.5078C278.785 63.5078 278.6 63.5078 278.6 63.3232V58.8924H278.046C278.046 58.8924 277.862 58.8924 277.862 58.7078V58.3386C277.862 58.3386 277.862 58.154 278.046 58.154H279.154C279.154 58.154 279.339 58.154 279.339 58.3386V63.3232ZM279.339 56.1232C279.339 56.4924 279.154 56.677 278.785 56.677C278.416 56.677 278.231 56.4924 278.231 56.1232C278.231 55.7539 278.416 55.5693 278.785 55.5693C279.154 55.5693 279.339 55.9386 279.339 56.1232Z" fill="white"/>
<path d="M282.108 59.0771C282.662 58.5233 283.215 58.1541 283.954 58.1541C285.062 58.1541 285.8 58.8925 285.8 60.1848V63.3233C285.8 63.3233 285.8 63.5079 285.615 63.5079H285.062C285.062 63.5079 284.877 63.5079 284.877 63.3233V60.3694C284.877 59.4464 284.323 58.8925 283.585 58.8925C282.477 58.8925 281.923 59.631 281.923 61.1079V63.5079C281.923 63.5079 281.923 63.6925 281.738 63.6925H281.185C281.185 63.6925 281 63.6925 281 63.5079V58.5233C281 58.5233 281 58.3387 281.185 58.3387H281.554C281.554 58.3387 281.738 58.3387 281.738 58.5233L282.108 59.0771Z" fill="white"/>
<path d="M288.57 58.3387C288.939 58.1541 289.308 58.1541 289.677 58.1541C290.97 58.1541 291.893 58.8925 291.893 60.1848V63.3233C291.893 63.3233 291.893 63.5079 291.708 63.5079H291.339C291.339 63.5079 291.154 63.5079 291.154 63.3233V62.7694C291.154 62.5848 290.97 62.5848 290.97 62.7694C290.6 63.3233 290.046 63.5079 289.308 63.5079C288.2 63.5079 287.646 62.9541 287.646 62.031C287.646 61.1079 288.385 60.3694 289.493 60.3694H291.154V60.1848C291.154 59.2617 290.6 58.7079 289.677 58.7079C289.308 58.7079 288.939 58.7079 288.754 58.8925L288.385 59.0771H288.2L288.016 58.7079V58.5233L288.57 58.3387ZM289.493 60.9233C288.754 60.9233 288.385 61.2925 288.385 61.8464C288.385 62.4002 288.754 62.7694 289.493 62.7694C290.6 62.7694 291.154 62.2156 291.154 60.9233H289.493Z" fill="white"/>
<path d="M294.477 59.0771C294.661 59.0771 294.661 59.0771 294.477 59.0771C295.031 58.5233 295.585 58.1541 296.323 58.1541C297.431 58.1541 298.169 58.8925 298.169 60.1848V63.3233C298.169 63.3233 298.169 63.5079 297.985 63.5079H297.431C297.431 63.5079 297.246 63.5079 297.246 63.3233V60.3694C297.246 59.4464 296.692 58.8925 295.954 58.8925C294.846 58.8925 294.292 59.631 294.292 61.1079V63.5079C294.292 63.5079 294.292 63.6925 294.108 63.6925H293.554C293.554 63.6925 293.369 63.6925 293.369 63.5079V58.5233C293.369 58.5233 293.369 58.3387 293.554 58.3387H293.923C293.923 58.3387 294.108 58.3387 294.108 58.5233L294.477 59.0771Z" fill="white"/>
<path d="M303.708 63.3231C303.339 63.5077 302.969 63.5077 302.6 63.5077C300.939 63.5077 300.2 62.4 300.2 60.7385C300.2 59.0769 301.123 57.9692 302.6 57.9692C302.969 57.9692 303.154 57.9692 303.523 58.1539L303.893 58.3385C303.893 58.3385 303.893 58.3385 303.893 58.5231L303.708 58.8923C303.708 58.8923 303.708 58.8923 303.523 58.8923H303.154C302.785 58.7077 302.6 58.7077 302.416 58.7077C301.308 58.7077 300.569 59.4462 300.569 60.7385C300.569 62.0308 301.123 62.7692 302.231 62.7692C302.416 62.7692 302.785 62.7692 303.154 62.5846H303.523H303.708L303.893 62.9539V63.1385L303.708 63.3231Z" fill="white"/>
<path d="M309.246 63.3231C308.877 63.5077 308.508 63.5077 308.139 63.5077C306.662 63.5077 305.739 62.4 305.739 60.7385C305.739 59.0769 306.662 57.9692 308.139 57.9692C309.431 57.9692 310.17 58.5231 310.17 59.6308C310.17 60.3692 309.616 60.7385 308.693 60.9231L306.662 61.2923C306.846 62.2154 307.4 62.7692 308.323 62.7692C308.693 62.7692 309.062 62.7692 309.246 62.5846L309.616 62.4H309.8L309.985 62.7692V62.9539L309.246 63.3231ZM308.323 60.5539C308.877 60.3692 309.246 60.1846 309.246 59.8154C309.246 59.2615 308.693 58.8923 307.954 58.8923C307.031 58.8923 306.293 59.6308 306.293 60.9231L308.323 60.5539Z" fill="white"/>
</svg>
