<svg width="269" height="80" viewBox="0 0 269 80" fill="none" xmlns="http://www.w3.org/2000/svg">
<path d="M12.0386 3.69238H18.3463V38.0001H12.0386V3.69238Z" fill="#227CBF"/>
<path d="M26.0386 12.3076H31.7309V14.6153C32.5001 13.5384 33.577 12.7691 34.8078 12.1538C36.0386 11.5384 37.4232 11.3845 38.8078 11.3845C40.1924 11.3845 41.4232 11.6922 42.8078 12.1538C44.0386 12.7691 45.2693 13.5384 46.1924 14.4614L46.8078 15.2307C47.7309 16.4614 48.3463 17.8461 48.5001 19.2307C48.8078 20.6153 48.8078 22.4614 48.8078 24.4614V37.6922H42.654V25.5384C42.654 23.9999 42.654 22.6153 42.5001 21.8461C42.3463 20.923 42.0386 20.1538 41.577 19.3845C41.1155 18.6153 40.5001 18.1538 39.7309 17.6922C38.9617 17.3845 38.1924 17.0768 37.4232 17.0768C36.5001 17.0768 35.7309 17.2307 34.9616 17.6922C34.1924 18.1538 33.577 18.6153 33.2693 19.2307C32.9617 19.8461 32.654 20.6153 32.5001 21.3845C32.3463 22.3076 32.1924 23.5384 32.1924 25.0768V25.8461V37.5384H26.0386V12.3076Z" fill="#227CBF"/>
<path d="M55.5772 17.8462H53.4233V12.3077H55.5772C55.5772 9.69233 56.3464 7.53848 57.8849 5.69233C59.4233 3.84617 61.4233 2.9231 64.0387 2.9231H65.731V9.07694C64.1926 9.07694 63.2695 9.23079 62.6541 9.53848C62.0387 9.84617 61.8849 10.7693 61.8849 12.1539H65.4233V17.6923H61.8849V37.8462H55.731V17.8462H55.5772Z" fill="#227CBF"/>
<path d="M70.0386 12.3076H75.7309V14.6153C76.5001 13.5384 77.2693 12.7691 78.1924 12.1538C79.1155 11.6922 80.1924 11.3845 81.4232 11.3845H81.8847V17.3845C80.5001 17.3845 79.2693 17.6922 78.3463 18.4614C77.4232 19.2307 76.8078 19.9999 76.654 20.7691C76.5001 21.5384 76.3463 22.7691 76.3463 23.9999V37.8461H70.1924V12.3076H70.0386Z" fill="#227CBF"/>
<path d="M112.5 38.0001H106.808V34.4617C105.885 35.8463 104.5 36.7693 102.962 37.5386C101.27 38.3078 99.7311 38.6155 98.0388 38.6155C96.0388 38.6155 94.3465 38.3078 92.6541 37.5386C91.1157 36.7693 89.4234 35.3847 87.7311 33.5386C86.0388 31.5386 85.2695 28.7693 85.2695 25.077C85.2695 23.2309 85.5772 21.5386 86.0388 20.154C86.5003 18.6155 87.7311 16.9232 89.5772 14.7693C91.4234 12.6155 94.3465 11.5386 98.0388 11.5386C101.731 11.5386 104.5 13.077 106.654 16.0001V12.3078H112.346V38.0001H112.5ZM99.2695 17.5386C96.9618 17.5386 95.1157 18.3078 93.7311 19.6924C92.3465 21.2309 91.5772 23.077 91.5772 25.3847C91.5772 27.5386 92.3465 29.2309 93.7311 30.6155C95.2695 32.0001 96.9618 32.7693 99.1157 32.7693C101.27 32.7693 103.116 32.0001 104.5 30.6155C105.885 29.2309 106.654 27.3847 106.654 25.077C106.654 22.9232 106.039 21.077 104.654 19.6924C103.27 18.3078 101.423 17.5386 99.2695 17.5386Z" fill="#227CBF"/>
<path d="M151.269 28.6154C150.039 31.6923 147.885 34.1538 144.962 36C142.039 37.8461 138.808 38.7692 135.423 38.7692C130.5 38.7692 126.346 36.9231 122.808 33.3846C119.269 29.8461 117.577 25.6923 117.577 20.7692C117.577 15.8461 119.269 11.6923 122.808 8.30767C126.346 4.76921 130.346 3.0769 135.269 3.0769C138.808 3.0769 142.039 3.99998 145.116 5.84613C148.193 7.69229 150.346 10.3077 151.577 13.5384H144.346C143.269 12.1538 141.885 11.2308 140.346 10.4615C138.808 9.69229 137.116 9.3846 135.423 9.3846C132.346 9.3846 129.577 10.6154 127.423 12.9231C125.269 15.2307 124.193 18 124.193 21.2307C124.193 24.3077 125.269 26.9231 127.577 29.3846C129.885 31.6923 132.5 32.9231 135.577 32.9231C137.269 32.9231 138.808 32.6154 140.193 31.8461C141.577 31.2307 142.962 30.1538 144.193 28.9231H151.269V28.6154Z" fill="#47B65C"/>
<path d="M156.5 12.3076H162.192V14.6153C162.962 13.5384 163.731 12.7691 164.654 12.1538C165.577 11.6922 166.654 11.3845 167.885 11.3845H168.346V17.3845C166.962 17.3845 165.731 17.6922 164.808 18.4614C163.885 19.2307 163.269 19.9999 163.115 20.7691C162.962 21.5384 162.808 22.7691 162.808 23.9999V37.8461H156.654V12.3076H156.5Z" fill="#47B65C"/>
<path d="M178.346 28.0001C178.808 29.5385 179.731 30.6155 180.962 31.5385C182.192 32.4616 183.577 32.9231 185.116 32.9231C187.577 32.9231 189.577 32.1539 190.808 30.7693H197.577C196.808 33.077 195.116 34.9231 192.808 36.6155C190.5 38.1539 187.885 39.077 185.269 39.077C181.577 39.077 178.346 37.6924 175.731 35.077C173.116 32.4616 171.731 29.2308 171.731 25.5385C171.731 21.6924 173.116 18.4616 175.731 15.6924C178.346 12.9232 181.577 11.6924 185.423 11.6924C189.116 11.6924 192.192 13.077 194.808 15.6924C197.423 18.3078 198.654 21.5385 198.654 25.2308C198.654 25.6924 198.654 26.1539 198.5 26.7693C198.346 27.3847 198.346 27.8462 198.346 28.1539H178.346V28.0001ZM192.5 22.4616C192.039 20.9232 191.116 19.8462 189.885 18.9232C188.654 18.0001 187.116 17.5385 185.577 17.5385C184.039 17.5385 182.5 18.0001 181.116 18.9232C179.731 19.8462 178.808 21.077 178.346 22.4616H192.5Z" fill="#47B65C"/>
<path d="M230.193 38.0001H224.5V34.4616C223.577 35.8462 222.346 36.9232 220.808 37.5385C219.27 38.3078 217.577 38.6155 215.885 38.6155C214.039 38.6155 212.346 38.3078 210.808 37.5385C209.27 36.7693 207.885 35.6924 206.808 34.4616C205.731 33.077 204.808 31.6924 204.193 30.1539C203.577 28.6155 203.27 26.9232 203.27 25.2308C203.27 21.5385 204.193 18.7693 205.885 16.7693C207.577 14.7693 209.423 13.3847 211.116 12.6155C212.808 11.8462 214.5 11.3847 216.346 11.3847C217.885 11.3847 219.423 11.6924 220.808 12.3078C222.193 12.9232 223.423 13.6924 224.346 14.9232V3.69238H230.5V38.0001H230.193ZM216.808 17.5385C214.808 17.5385 213.116 18.3078 211.577 19.6924C210.039 21.2308 209.27 22.9232 209.27 24.9232C209.27 27.077 210.039 28.9232 211.423 30.4616C212.808 32.0001 214.654 32.7693 216.808 32.7693C218.962 32.7693 220.808 32.0001 222.193 30.4616C223.731 28.9232 224.5 27.077 224.5 25.077C224.5 22.9232 223.731 21.2308 222.193 19.6924C220.808 18.3078 218.962 17.5385 216.808 17.5385Z" fill="#47B65C"/>
<path d="M236.5 3.69238H242.654V9.38469H236.5V3.69238ZM236.5 12.3078H242.654V38.0001H236.5V12.3078Z" fill="#47B65C"/>
<path d="M250.193 17.8462H247.116V12.3078H250.193V3.69238H256.346V12.3078H260.039V17.8462H256.346V38.0001H250.193V17.8462Z" fill="#47B65C"/>
<path d="M61.2694 72.4616C59.2694 71.5385 57.4233 70.3078 55.5771 69.2308C53.731 68.0001 52.0386 66.6155 50.3463 65.2308C48.654 63.8462 47.1156 62.3078 45.5771 60.6155C44.8079 59.8462 44.1925 58.9232 43.4233 58.1539C43.2694 58.0001 43.1156 57.6924 42.9617 57.5385C42.8079 57.3847 42.654 57.077 42.5002 56.9232C42.1925 56.6155 41.8848 56.3078 41.731 56.0001C40.654 54.7693 39.5771 53.5385 38.654 52.1539C37.5771 50.6155 36.8079 49.2308 36.0387 47.6924C35.731 47.077 35.4233 46.3078 35.1156 45.6924H11.731C12.0386 46.4616 12.3463 47.077 12.654 47.8462C13.5771 49.8462 14.654 51.6924 15.8848 53.6924C17.1156 55.5385 18.3463 57.3847 19.8848 58.9232C21.2694 60.6155 22.8079 62.1539 24.5002 63.6924C26.0386 65.2308 27.731 66.6155 29.5771 67.8462C31.2694 69.077 33.1156 70.3078 35.1156 71.3847C36.9617 72.4616 38.9617 73.3847 40.9617 74.3078C42.9617 75.077 45.1156 75.8462 47.1156 76.4616C49.2694 77.077 51.4233 77.5385 53.5771 77.8462C54.5002 78.0001 55.4233 78.1539 56.3463 78.1539C56.9617 78.1539 57.731 78.3078 58.3463 78.3078C58.9617 78.3078 59.731 78.3078 60.3463 78.4616C60.654 78.4616 61.1156 78.4616 61.4233 78.4616C61.731 78.4616 62.0387 78.4616 62.1925 78.4616C62.8079 78.4616 63.4233 78.4616 64.0387 78.4616C64.8079 78.4616 65.4233 78.4616 66.1925 78.3078C67.1156 78.3078 67.8848 78.1539 68.8079 78.0001C70.3463 77.8462 71.8848 77.5385 73.4233 77.077C71.2694 76.6155 69.1156 76.0001 67.1156 75.2308C65.2694 74.3078 63.2694 73.3847 61.2694 72.4616Z" fill="#47B65C"/>
<path opacity="0.12" d="M24.5002 63.6922C26.0386 65.2307 27.731 66.6153 29.5771 67.8461C31.2694 69.0768 33.1156 70.3076 35.1156 71.3845C36.9617 72.4615 38.9617 73.3845 40.9617 74.3076C42.9617 75.0768 45.1156 75.8461 47.1156 76.4615C49.2694 77.0769 51.4233 77.5384 53.5771 77.8461C54.5002 77.9999 55.4233 78.1538 56.3463 78.1538C56.9617 78.1538 57.731 78.3076 58.3463 78.3076C58.9617 78.3076 59.731 78.3076 60.3463 78.4615C60.654 78.4615 61.1156 78.4615 61.4233 78.4615C61.731 78.4615 62.0387 78.4615 62.1925 78.4615C62.8079 78.4615 63.4233 78.4615 64.0387 78.4615C64.8079 78.4615 65.4233 78.4615 66.1925 78.3076C67.1156 78.3076 67.8848 78.1538 68.8079 77.9999C70.3463 77.8461 71.8848 77.5384 73.4233 77.0768C71.2694 76.6153 69.1156 75.9999 67.1156 75.2307C65.1156 74.4615 63.1156 73.6922 61.1156 72.6153C59.1156 71.6922 57.2694 70.4615 55.4233 69.3845C53.5771 68.1538 51.8848 66.7692 50.1925 65.3845C48.5002 63.9999 46.9617 62.4615 45.4233 60.7692C44.654 59.9999 44.0387 59.0769 43.2694 58.3076C43.1156 58.1538 42.9617 57.8461 42.8079 57.6922C42.654 57.5384 42.5002 57.2307 42.3463 57.0768C42.0387 56.7692 41.8848 56.6153 41.5771 56.3076C34.5002 57.3845 27.8848 59.0768 21.731 61.2307C22.654 61.8461 23.5771 62.7692 24.5002 63.6922Z" fill="white"/>
<path d="M88.8081 45.6924C88.1927 47.077 87.5773 48.3078 86.8081 49.5385C86.0389 50.9232 85.1158 52.3078 84.0389 53.5385C83.1158 54.7693 82.0389 55.8462 80.962 56.9232C79.7312 58.0001 78.5004 59.077 77.1158 60.0001C75.4235 61.2308 73.5773 62.1539 71.5773 62.9232C69.5773 63.6924 67.5773 64.1539 65.5773 64.3078C63.4235 64.4616 61.4235 64.4616 59.2696 64.1539C57.2696 63.8462 55.2696 63.2308 53.4235 62.3078C51.5773 61.5385 49.885 60.4616 48.3466 59.3847C47.1158 58.4616 45.885 57.3847 44.8081 56.3078C46.0389 58.0001 47.5773 59.6924 48.962 61.077C50.5004 62.6155 52.0389 64.0001 53.7312 65.3847C55.4235 66.7693 57.1158 68.0001 58.962 69.077C60.8081 70.1539 62.6543 71.2308 64.5004 72.1539C66.5004 73.077 68.3466 73.8462 70.5004 74.4616C71.5773 74.7693 72.5004 75.077 73.5773 75.3847C73.885 75.3847 74.0389 75.5385 74.3466 75.5385C74.5004 75.5385 74.6543 75.5385 74.6543 75.6924H74.8081H74.962C75.4235 75.5385 76.0389 75.3847 76.5004 75.2308C78.5004 74.6155 80.5004 74.0001 82.5004 73.2308C84.3466 72.4616 86.1927 71.5385 88.0389 70.6155C89.7312 69.6924 91.5773 68.6155 93.1158 67.3847C94.8081 66.1539 96.3466 64.9232 97.885 63.6924C99.2696 62.4616 100.654 61.077 101.885 59.6924C103.116 58.4616 104.193 57.077 105.116 55.6924C106.193 54.3078 107.116 52.7693 108.039 51.3847C108.962 49.8462 109.731 48.3078 110.5 46.7693C110.654 46.4616 110.808 46.1539 110.962 45.8462H88.8081V45.6924Z" fill="#227CBF"/>
<path opacity="0.12" d="M49.1158 61.0769C50.6543 62.6153 52.1927 64 53.885 65.3846C55.5773 66.7692 57.2696 68 59.1158 69.0769C60.962 70.1538 62.8081 71.2307 64.6543 72.1538C66.6543 73.0769 68.5004 73.8461 70.6543 74.4615C71.7312 74.7692 72.6543 75.0769 73.7312 75.3846C74.0389 75.3846 74.1927 75.5384 74.5004 75.5384C74.6543 75.5384 74.8081 75.5384 74.8081 75.6923H74.962H75.1158C75.5773 75.5384 76.1927 75.3846 76.6543 75.2307C78.6543 74.6153 80.6543 74 82.6543 73.2307C84.5004 72.4615 86.3466 71.5384 88.1927 70.6153C89.885 69.6923 91.7312 68.6153 93.2696 67.3846C94.962 66.1538 96.5004 64.923 98.0389 63.6923C98.9619 62.7692 100.039 61.8461 100.962 60.923C94.9619 58.923 88.5004 57.2307 81.7312 56.1538C81.4235 56.4615 81.2696 56.6153 80.962 56.923C79.7312 58 78.5004 59.0769 77.1158 60C75.4235 61.2307 73.5773 62.1538 71.5773 62.923C69.5773 63.6923 67.5773 64.1538 65.5773 64.3077C63.4235 64.4615 61.4235 64.4615 59.2696 64.1538C57.2696 63.8461 55.2696 63.2307 53.4235 62.3077C51.5773 61.5384 49.885 60.4615 48.3466 59.3846C47.1158 58.4615 45.885 57.3846 44.8081 56.3077C46.3466 57.8461 47.7312 59.5384 49.1158 61.0769Z" fill="white"/>
<path d="M125.577 49.6922C124.654 49.3845 124.192 48.7691 124.192 48.1537C124.192 47.2306 124.962 46.6152 126.192 46.6152C126.654 46.6152 127.116 46.7691 127.577 46.7691L128.039 46.9229C128.039 46.9229 128.039 46.9229 128.039 47.0768L127.885 47.3845C127.885 47.3845 127.885 47.3845 127.731 47.3845L127.269 47.2306C126.808 47.0768 126.5 47.0768 126.039 47.0768C125.269 47.0768 124.654 47.5383 124.654 48.1537C124.654 48.6152 124.808 48.9229 125.577 49.2306L126.808 49.6922C127.577 49.9998 128.192 50.4614 128.192 51.2306C128.192 52.3075 127.269 52.9229 126.039 52.9229C125.423 52.9229 124.808 52.7691 124.346 52.6152L124.039 52.4614C124.039 52.4614 124.039 52.4614 124.039 52.3075L124.192 51.9998C124.192 51.9998 124.192 51.9998 124.346 51.9998L124.654 52.1537C125.115 52.3075 125.577 52.4614 126.192 52.4614C126.962 52.4614 127.731 51.9999 127.731 51.3845C127.731 50.9229 127.269 50.6152 126.808 50.3075L125.577 49.6922Z" fill="#227CBF"/>
<path d="M132.654 52.7692C132.346 52.923 132.039 52.923 131.731 52.923C130.5 52.923 129.731 51.9999 129.731 50.6153C129.731 49.2307 130.5 48.3076 131.731 48.3076C132.808 48.3076 133.423 48.7692 133.423 49.6922C133.423 50.3076 132.962 50.6153 132.192 50.7692L130.5 51.0768C130.654 51.8461 131.116 52.3076 131.885 52.3076C132.192 52.3076 132.5 52.3076 132.654 52.1538L132.962 51.9999H133.116L133.269 52.3076V52.4615L132.654 52.7692ZM132.039 50.4615C132.5 50.3076 132.808 50.1538 132.808 49.8461C132.808 49.3845 132.346 49.0768 131.731 49.0768C130.962 49.0768 130.346 49.6922 130.346 50.7692L132.039 50.4615Z" fill="#227CBF"/>
<path d="M137.577 52.7692C137.269 52.923 136.962 52.923 136.654 52.923C135.269 52.923 134.654 51.9999 134.654 50.6153C134.654 49.2307 135.423 48.3076 136.654 48.3076C136.962 48.3076 137.115 48.3076 137.423 48.4615L137.731 48.6153C137.731 48.6153 137.731 48.6153 137.731 48.7692L137.577 49.0768C137.577 49.0768 137.577 49.0768 137.423 49.0768H137.115C136.808 48.923 136.654 48.923 136.5 48.923C135.577 48.923 134.962 49.5384 134.962 50.6153C134.962 51.6922 135.423 52.3076 136.346 52.3076C136.5 52.3076 136.808 52.3076 137.115 52.1538H137.423H137.577L137.731 52.4615V52.6153L137.577 52.7692Z" fill="#227CBF"/>
<path d="M142.654 52.1538C142.193 52.6153 141.731 52.923 141.116 52.923C140.193 52.923 139.577 52.3076 139.577 51.2307V48.6153C139.577 48.6153 139.577 48.4615 139.731 48.4615H140.193C140.193 48.4615 140.346 48.4615 140.346 48.6153V51.0768C140.346 51.8461 140.808 52.3076 141.423 52.3076C142.346 52.3076 142.808 51.6922 142.808 50.4615V48.4615C142.808 48.4615 142.808 48.3076 142.962 48.3076H143.423C143.423 48.3076 143.577 48.3076 143.577 48.4615V52.6153C143.577 52.6153 143.577 52.7692 143.423 52.7692H143.116C143.116 52.7692 142.962 52.7692 142.962 52.6153L142.654 52.1538Z" fill="#227CBF"/>
<path d="M147.115 48.923C146.038 49.0768 145.577 49.8461 145.577 51.3845V52.7692C145.577 52.7692 145.577 52.923 145.423 52.923H144.961C144.961 52.923 144.808 52.923 144.808 52.7692V48.6153C144.808 48.6153 144.808 48.4615 144.961 48.4615H145.269C145.269 48.4615 145.423 48.4615 145.423 48.6153V49.2307C145.423 49.2307 145.423 49.3845 145.577 49.2307C145.885 48.7692 146.346 48.4615 147.115 48.3076C147.115 48.3076 147.269 48.3076 147.269 48.4615V48.923H147.115Z" fill="#227CBF"/>
<path d="M149.731 52.7692L149.269 52.923C149.269 52.923 149.115 52.923 149.115 52.7692V49.0768H148.654C148.654 49.0768 148.5 49.0768 148.5 48.923V48.6153C148.5 48.6153 148.5 48.4615 148.654 48.4615H149.577C149.577 48.4615 149.731 48.4615 149.731 48.6153V52.7692ZM149.731 46.7692C149.731 47.0768 149.577 47.2307 149.269 47.2307C148.962 47.2307 148.808 47.0768 148.808 46.7692C148.808 46.4615 148.962 46.3076 149.269 46.3076C149.577 46.3076 149.731 46.6153 149.731 46.7692Z" fill="#227CBF"/>
<path d="M152.039 49.2307C152.5 48.7691 152.962 48.4614 153.577 48.4614C154.5 48.4614 155.116 49.0768 155.116 50.1537V52.7691C155.116 52.7691 155.116 52.923 154.962 52.923H154.5C154.5 52.923 154.346 52.923 154.346 52.7691V50.3076C154.346 49.5384 153.885 49.0768 153.27 49.0768C152.346 49.0768 151.885 49.6922 151.885 50.923V52.923C151.885 52.923 151.885 53.0768 151.731 53.0768H151.27C151.27 53.0768 151.116 53.0768 151.116 52.923V48.7691C151.116 48.7691 151.116 48.6153 151.27 48.6153H151.577C151.577 48.6153 151.731 48.6153 151.731 48.7691L152.039 49.2307Z" fill="#227CBF"/>
<path d="M157.577 54.1537C157.731 54.1537 158.192 54.3076 158.5 54.3076C159.423 54.3076 159.885 53.846 160.038 53.0768C160.038 52.3076 160.038 52.6153 160.038 52.3076C160.038 52.3076 160.038 52.1537 159.885 52.3076C159.577 52.7691 159.115 53.0768 158.5 53.0768C157.423 53.0768 156.654 52.1537 156.654 50.7691C156.654 49.3845 157.423 48.4614 158.654 48.4614C159.115 48.4614 159.423 48.6153 159.731 48.7691L160.346 49.0768C160.346 49.0768 160.346 49.0768 160.346 49.2307V53.0768C160.346 54.3076 159.731 54.923 158.346 54.923C158.038 54.923 157.577 54.923 157.269 54.7691L156.808 54.6153C156.808 54.6153 156.808 54.6153 156.808 54.4614L156.961 54.1537C156.961 54.1537 156.961 54.1537 157.115 54.1537H157.577ZM159.577 49.2307C159.423 49.0768 158.961 49.0768 158.654 49.0768C157.731 49.0768 157.269 49.6922 157.269 50.7691C157.269 51.846 157.731 52.4614 158.5 52.4614C159.423 52.4614 159.885 51.6922 159.885 50.6153V49.3845L159.577 49.2307Z" fill="#227CBF"/>
<path d="M165.423 52.7691L164.961 52.9229C164.961 52.9229 164.808 52.9229 164.808 52.7691V46.7691C164.808 46.7691 164.808 46.6152 164.961 46.6152H165.423C165.423 46.6152 165.577 46.6152 165.577 46.7691V52.7691H165.423Z" fill="#227CBF"/>
<path d="M167.731 49.2307C167.885 49.2307 167.885 49.2307 167.731 49.2307C168.192 48.7691 168.654 48.4614 169.269 48.4614C170.192 48.4614 170.808 49.0768 170.808 50.1537V52.7691C170.808 52.7691 170.808 52.923 170.654 52.923H170.192C170.192 52.923 170.038 52.923 170.038 52.7691V50.3076C170.038 49.5384 169.577 49.0768 168.961 49.0768C168.038 49.0768 167.577 49.6922 167.577 50.923V52.923C167.577 52.923 167.577 53.0768 167.423 53.0768H166.961C166.961 53.0768 166.808 53.0768 166.808 52.923V48.7691C166.808 48.7691 166.808 48.6153 166.961 48.6153H167.269C167.269 48.6153 167.423 48.6153 167.423 48.7691L167.731 49.2307Z" fill="#227CBF"/>
<path d="M172.962 47.6922C172.962 46.923 173.423 46.3076 174.192 46.3076C174.346 46.3076 174.5 46.3076 174.654 46.4615H174.808C174.808 46.4615 174.808 46.4615 174.808 46.6153L174.654 46.923C174.654 46.923 174.654 46.923 174.5 46.923H174.346C174.192 46.923 174.192 46.923 174.039 46.923C173.577 46.923 173.423 47.2307 173.423 47.6922V48.4615H174.346C174.346 48.4615 174.5 48.4615 174.5 48.6153V48.923C174.5 48.923 174.5 49.0768 174.346 49.0768H173.423V52.7692C173.423 52.7692 173.423 52.923 173.269 52.923H172.808C172.808 52.923 172.654 52.923 172.654 52.7692V49.0768H172.192C172.192 49.0768 172.039 49.0768 172.039 48.923V48.6153C172.039 48.6153 172.039 48.4615 172.192 48.4615H172.654V47.6922H172.962Z" fill="#227CBF"/>
<path d="M178.346 48.923C177.269 49.0768 176.808 49.8461 176.808 51.3845V52.7692C176.808 52.7692 176.808 52.923 176.654 52.923H176.192C176.192 52.923 176.039 52.923 176.039 52.7692V48.6153C176.039 48.6153 176.039 48.4615 176.192 48.4615H176.5C176.5 48.4615 176.654 48.4615 176.654 48.6153V49.2307C176.654 49.2307 176.654 49.3845 176.808 49.2307C177.115 48.7692 177.577 48.4615 178.346 48.3076C178.346 48.3076 178.5 48.3076 178.5 48.4615V48.923H178.346Z" fill="#227CBF"/>
<path d="M180.193 48.6153C180.5 48.4614 180.808 48.4614 181.116 48.4614C182.193 48.4614 182.962 49.0768 182.962 50.1537V52.7691C182.962 52.7691 182.962 52.923 182.808 52.923H182.5C182.5 52.923 182.346 52.923 182.346 52.7691V52.3076C182.346 52.1537 182.193 52.1537 182.193 52.3076C181.885 52.7691 181.423 52.923 180.808 52.923C179.885 52.923 179.423 52.4614 179.423 51.6922C179.423 50.923 180.039 50.3076 180.962 50.3076H182.346V50.1537C182.346 49.3845 181.885 48.923 181.116 48.923C180.808 48.923 180.5 48.923 180.346 49.0768L180.039 49.2307H179.885L179.731 48.923V48.7691L180.193 48.6153ZM180.962 50.7691C180.346 50.7691 180.039 51.0768 180.039 51.5383C180.039 51.9999 180.346 52.3076 180.962 52.3076C181.885 52.3076 182.346 51.846 182.346 50.7691H180.962Z" fill="#227CBF"/>
<path d="M185.577 50.7691C184.962 50.6153 184.654 50.3076 184.654 49.6922C184.654 48.923 185.269 48.4614 186.192 48.4614C186.654 48.4614 186.962 48.4614 187.269 48.6153L187.577 48.7691C187.577 48.7691 187.577 48.7691 187.577 48.923L187.423 49.2307C187.423 49.2307 187.423 49.2307 187.269 49.2307L186.962 49.0768C186.654 49.0768 186.346 48.923 186.038 48.923C185.423 48.923 185.115 49.2307 185.115 49.5384C185.115 49.846 185.269 49.9999 185.731 50.1537L186.808 50.4614C187.577 50.6153 187.885 51.0768 187.885 51.5383C187.885 52.3076 187.269 52.7691 186.192 52.7691C185.731 52.7691 185.269 52.7691 184.808 52.6153L184.5 52.4614C184.5 52.4614 184.5 52.4614 184.5 52.3076L184.654 51.9999C184.654 51.9999 184.654 51.9999 184.808 51.9999L185.115 52.1537C185.423 52.3076 185.885 52.3076 186.346 52.3076C186.962 52.3076 187.423 51.9999 187.423 51.5383C187.423 51.2307 187.269 51.0768 186.808 50.923L185.577 50.7691Z" fill="#227CBF"/>
<path d="M191.116 48.6153C191.27 48.6153 191.27 48.6153 191.116 48.6153L191.27 49.0768C191.27 49.0768 191.27 49.2307 191.116 49.2307H190.193V51.9999C190.193 52.4614 190.346 52.6153 190.654 52.6153C190.654 52.6153 190.808 52.6153 190.962 52.6153H191.116L191.27 52.923V53.0768C191.116 53.0768 190.962 53.2307 190.808 53.2307C190.193 53.2307 189.731 52.7691 189.731 52.1538V49.3845H189.27C189.27 49.3845 189.116 49.3845 189.116 49.2307V48.923C189.116 48.923 189.116 48.7691 189.27 48.7691H189.731V47.6922V47.5384L190.193 47.3845H190.346V48.6153H191.116Z" fill="#227CBF"/>
<path d="M194.962 48.923C193.885 49.0768 193.423 49.8461 193.423 51.3845V52.7692C193.423 52.7692 193.423 52.923 193.269 52.923H192.808C192.808 52.923 192.654 52.923 192.654 52.7692V48.6153C192.654 48.6153 192.654 48.4615 192.808 48.4615H193.115C193.115 48.4615 193.269 48.4615 193.269 48.6153V49.2307C193.269 49.2307 193.269 49.3845 193.423 49.2307C193.731 48.7692 194.192 48.4615 194.962 48.3076C194.962 48.3076 195.115 48.3076 195.115 48.4615V48.923H194.962Z" fill="#227CBF"/>
<path d="M199.731 52.1538C199.269 52.6153 198.808 52.923 198.192 52.923C197.269 52.923 196.654 52.3076 196.654 51.2307V48.6153C196.654 48.6153 196.654 48.4615 196.808 48.4615H197.269C197.269 48.4615 197.423 48.4615 197.423 48.6153V51.0768C197.423 51.8461 197.885 52.3076 198.5 52.3076C199.423 52.3076 199.885 51.6922 199.885 50.4615V48.4615C199.885 48.4615 199.885 48.3076 200.038 48.3076H200.5C200.5 48.3076 200.654 48.3076 200.654 48.4615V52.6153C200.654 52.6153 200.654 52.7692 200.5 52.7692H200.192C200.192 52.7692 200.038 52.7692 200.038 52.6153L199.731 52.1538Z" fill="#227CBF"/>
<path d="M204.654 52.7692C204.346 52.923 204.039 52.923 203.731 52.923C202.346 52.923 201.731 51.9999 201.731 50.6153C201.731 49.2307 202.5 48.3076 203.731 48.3076C204.039 48.3076 204.193 48.3076 204.5 48.4615L204.808 48.6153C204.808 48.6153 204.808 48.6153 204.808 48.7692L204.654 49.0768C204.654 49.0768 204.654 49.0768 204.5 49.0768H204.193C203.885 48.923 203.731 48.923 203.577 48.923C202.654 48.923 202.039 49.5384 202.039 50.6153C202.039 51.6922 202.5 52.3076 203.423 52.3076C203.577 52.3076 203.885 52.3076 204.193 52.1538H204.5H204.654L204.808 52.4615V52.6153L204.654 52.7692Z" fill="#227CBF"/>
<path d="M208.5 48.6153L208.654 49.0768C208.654 49.0768 208.654 49.2307 208.5 49.2307H207.577V51.9999C207.577 52.4614 207.731 52.6153 208.038 52.6153C208.038 52.6153 208.192 52.6153 208.346 52.6153H208.5L208.654 52.923V53.0768C208.5 53.0768 208.346 53.2307 208.192 53.2307C207.577 53.2307 207.115 52.7691 207.115 52.1538V49.3845H206.654C206.654 49.3845 206.5 49.3845 206.5 49.2307V48.923C206.5 48.923 206.5 48.7691 206.654 48.7691H207.115V47.6922V47.5384L207.577 47.3845H207.731V48.6153H208.5Z" fill="#227CBF"/>
<path d="M213.269 52.1538C212.808 52.6153 212.346 52.923 211.731 52.923C210.808 52.923 210.192 52.3076 210.192 51.2307V48.6153C210.192 48.6153 210.192 48.4615 210.346 48.4615H210.808C210.808 48.4615 210.962 48.4615 210.962 48.6153V51.0768C210.962 51.8461 211.423 52.3076 212.039 52.3076C212.962 52.3076 213.423 51.6922 213.423 50.4615V48.4615C213.423 48.4615 213.423 48.3076 213.577 48.3076H214.039C214.039 48.3076 214.192 48.3076 214.192 48.4615V52.6153C214.192 52.6153 214.192 52.7692 214.039 52.7692H213.731C213.731 52.7692 213.577 52.7692 213.577 52.6153L213.269 52.1538Z" fill="#227CBF"/>
<path d="M217.731 48.923C216.654 49.0768 216.193 49.8461 216.193 51.3845V52.7692C216.193 52.7692 216.193 52.923 216.039 52.923H215.577C215.577 52.923 215.423 52.923 215.423 52.7692V48.6153C215.423 48.6153 215.423 48.4615 215.577 48.4615H215.885C215.885 48.4615 216.039 48.4615 216.039 48.6153V49.2307C216.039 49.2307 216.039 49.3845 216.193 49.2307C216.5 48.7692 216.962 48.4615 217.731 48.3076C217.731 48.3076 217.885 48.3076 217.885 48.4615V48.923H217.731Z" fill="#227CBF"/>
<path d="M221.885 52.7692C221.577 52.923 221.269 52.923 220.961 52.923C219.731 52.923 218.961 51.9999 218.961 50.6153C218.961 49.2307 219.731 48.3076 220.961 48.3076C222.038 48.3076 222.654 48.7692 222.654 49.6922C222.654 50.3076 222.192 50.6153 221.423 50.7692L219.731 51.0768C219.885 51.8461 220.346 52.3076 221.115 52.3076C221.423 52.3076 221.731 52.3076 221.885 52.1538L222.192 51.9999H222.346L222.5 52.3076V52.4615L221.885 52.7692ZM221.269 50.4615C221.731 50.3076 222.038 50.1538 222.038 49.8461C222.038 49.3845 221.577 49.0768 220.961 49.0768C220.192 49.0768 219.577 49.6922 219.577 50.7692L221.269 50.4615Z" fill="#227CBF"/>
<path d="M230.038 49.5383L230.192 49.9999C230.192 49.9999 230.192 50.1537 230.038 50.1537H227.269V52.7691C227.269 52.7691 227.269 52.9229 227.115 52.9229H226.808C226.808 52.9229 226.654 52.9229 226.654 52.7691V46.7691C226.654 46.7691 226.654 46.6152 226.808 46.6152H230.654C230.654 46.6152 230.808 46.6152 230.654 46.7691L230.5 47.0768C230.5 47.0768 230.5 47.0768 230.346 47.0768H227.115V49.5383H230.038Z" fill="#227CBF"/>
<path d="M233.116 52.7692L232.654 52.923C232.654 52.923 232.5 52.923 232.5 52.7692V49.0768H232.039C232.039 49.0768 231.885 49.0768 231.885 48.923V48.6153C231.885 48.6153 231.885 48.4615 232.039 48.4615H232.962C232.962 48.4615 233.116 48.4615 233.116 48.6153V52.7692ZM233.116 46.7692C233.116 47.0768 232.962 47.2307 232.654 47.2307C232.346 47.2307 232.192 47.0768 232.192 46.7692C232.192 46.4615 232.346 46.3076 232.654 46.3076C232.962 46.3076 233.116 46.6153 233.116 46.7692Z" fill="#227CBF"/>
<path d="M235.423 49.2307C235.885 48.7691 236.346 48.4614 236.962 48.4614C237.885 48.4614 238.5 49.0768 238.5 50.1537V52.7691C238.5 52.7691 238.5 52.923 238.346 52.923H237.885C237.885 52.923 237.731 52.923 237.731 52.7691V50.3076C237.731 49.5384 237.269 49.0768 236.654 49.0768C235.731 49.0768 235.269 49.6922 235.269 50.923V52.923C235.269 52.923 235.269 53.0768 235.115 53.0768H234.654C234.654 53.0768 234.5 53.0768 234.5 52.923V48.7691C234.5 48.7691 234.5 48.6153 234.654 48.6153H234.962C234.962 48.6153 235.115 48.6153 235.115 48.7691L235.423 49.2307Z" fill="#227CBF"/>
<path d="M240.808 48.6153C241.115 48.4614 241.423 48.4614 241.731 48.4614C242.808 48.4614 243.577 49.0768 243.577 50.1537V52.7691C243.577 52.7691 243.577 52.923 243.423 52.923H243.115C243.115 52.923 242.962 52.923 242.962 52.7691V52.3076C242.962 52.1537 242.808 52.1537 242.808 52.3076C242.5 52.7691 242.039 52.923 241.423 52.923C240.5 52.923 240.039 52.4614 240.039 51.6922C240.039 50.923 240.654 50.3076 241.577 50.3076H242.962V50.1537C242.962 49.3845 242.5 48.923 241.731 48.923C241.423 48.923 241.115 48.923 240.962 49.0768L240.654 49.2307H240.5L240.346 48.923V48.7691L240.808 48.6153ZM241.577 50.7691C240.962 50.7691 240.654 51.0768 240.654 51.5383C240.654 51.9999 240.962 52.3076 241.577 52.3076C242.5 52.3076 242.962 51.846 242.962 50.7691H241.577Z" fill="#227CBF"/>
<path d="M245.731 49.2307C245.885 49.2307 245.885 49.2307 245.731 49.2307C246.192 48.7691 246.654 48.4614 247.269 48.4614C248.192 48.4614 248.808 49.0768 248.808 50.1537V52.7691C248.808 52.7691 248.808 52.923 248.654 52.923H248.192C248.192 52.923 248.038 52.923 248.038 52.7691V50.3076C248.038 49.5384 247.577 49.0768 246.961 49.0768C246.038 49.0768 245.577 49.6922 245.577 50.923V52.923C245.577 52.923 245.577 53.0768 245.423 53.0768H244.961C244.961 53.0768 244.808 53.0768 244.808 52.923V48.7691C244.808 48.7691 244.808 48.6153 244.961 48.6153H245.269C245.269 48.6153 245.423 48.6153 245.423 48.7691L245.731 49.2307Z" fill="#227CBF"/>
<path d="M253.423 52.7692C253.115 52.923 252.808 52.923 252.5 52.923C251.115 52.923 250.5 51.9999 250.5 50.6153C250.5 49.2307 251.269 48.3076 252.5 48.3076C252.808 48.3076 252.962 48.3076 253.269 48.4615L253.577 48.6153C253.577 48.6153 253.577 48.6153 253.577 48.7692L253.423 49.0768C253.423 49.0768 253.423 49.0768 253.269 49.0768H252.962C252.654 48.923 252.5 48.923 252.346 48.923C251.423 48.923 250.808 49.5384 250.808 50.6153C250.808 51.6922 251.269 52.3076 252.192 52.3076C252.346 52.3076 252.654 52.3076 252.962 52.1538H253.269H253.423L253.577 52.4615V52.6153L253.423 52.7692Z" fill="#227CBF"/>
<path d="M258.039 52.7692C257.731 52.923 257.423 52.923 257.116 52.923C255.885 52.923 255.116 51.9999 255.116 50.6153C255.116 49.2307 255.885 48.3076 257.116 48.3076C258.193 48.3076 258.808 48.7692 258.808 49.6922C258.808 50.3076 258.347 50.6153 257.577 50.7692L255.885 51.0768C256.039 51.8461 256.5 52.3076 257.27 52.3076C257.577 52.3076 257.885 52.3076 258.039 52.1538L258.347 51.9999H258.5L258.654 52.3076V52.4615L258.039 52.7692ZM257.27 50.4615C257.731 50.3076 258.039 50.1538 258.039 49.8461C258.039 49.3845 257.577 49.0768 256.962 49.0768C256.193 49.0768 255.577 49.6922 255.577 50.7692L257.27 50.4615Z" fill="#227CBF"/>
</svg>
