<svg width="301" height="188" viewBox="0 0 301 188" fill="none" xmlns="http://www.w3.org/2000/svg">
<path d="M299.252 185.163C306.487 171.584 285.808 103.687 142.423 103.687C38.9274 103.687 -8.57413 159.262 1.92751 187.426" fill="url(#paint0_radial_2946_54426)"/>
<mask id="mask0_2946_54426" style="mask-type:luminance" maskUnits="userSpaceOnUse" x="0" y="103" width="301" height="85">
<path d="M299.252 185.163C306.487 171.584 285.808 103.687 142.423 103.687C38.9274 103.687 -8.57413 159.262 1.92751 187.426" fill="white"/>
</mask>
<g mask="url(#mask0_2946_54426)">
<ellipse opacity="0.671968" cx="120.307" cy="163.647" rx="7.88551" ry="4.15371" fill="url(#paint1_linear_2946_54426)"/>
<ellipse opacity="0.256348" cx="200.793" cy="135.422" rx="12.4416" ry="6.47979" fill="url(#paint2_linear_2946_54426)"/>
<ellipse opacity="0.729957" cx="59.2033" cy="118.142" rx="12.4416" ry="6.47979" fill="url(#paint3_linear_2946_54426)"/>
</g>
<path opacity="0.5" d="M117.385 118.745C117.385 118.745 147.896 132.35 160 137.572C169.588 141.708 218.956 154.938 224.838 151.178C230.719 147.417 243.704 137.095 239.417 130.023C235.13 122.951 212.585 110.254 201.802 108.399C191.02 106.543 160.188 114.977 160.188 114.977L133.89 119.26L117.385 118.745Z" fill="url(#paint4_linear_2946_54426)"/>
<path d="M140 57.9117L106 81.62L115.065 61.4497L149.115 40.9498L140 57.9117Z" fill="#E2E7EC"/>
<path d="M114.5 61.8662L149.115 41.316V97.362L117.385 118.459L114.5 61.8662Z" fill="#D8DFE6"/>
<path d="M149.115 41.316L202.192 53.0919V109.158L149.115 97.3825V41.316Z" fill="#E9EFF1"/>
<path d="M114.5 61.8634L168.731 73.8823V129.949L117.385 118.767L114.5 61.8634Z" fill="#E8EAEB"/>
<path d="M167.576 73.9031L202.192 53.3529V109.399L167.576 129.949V73.9031Z" fill="#D8DFE6"/>
<mask id="mask1_2946_54426" style="mask-type:luminance" maskUnits="userSpaceOnUse" x="167" y="53" width="36" height="77">
<path d="M167.576 73.9031L202.192 53.3529V109.399L167.576 129.949V73.9031Z" fill="white"/>
</mask>
<g mask="url(#mask1_2946_54426)">
<rect x="180.434" y="48.6827" width="10.8791" height="85.9371" fill="#C7D0D9"/>
</g>
<path d="M183.142 90.5568L217.192 70.0569L201.626 53.3529L167.576 73.8528L183.142 90.5568Z" fill="#E2E7EC"/>
<path opacity="0.5" d="M87.9466 120.157L141.5 146.107L146.5 132.356L93.9557 115.781L87.9466 120.157Z" fill="url(#paint5_linear_2946_54426)"/>
<path d="M86.4846 77.4985L104.951 78.879L100.85 116.971C100.85 116.971 100.491 117.352 99.6198 117.204C98.7485 117.056 97.8345 116.597 97.8345 116.597L95.0881 86.3143C95.0881 86.3143 93.4997 97.0222 93.6106 100.035C93.6942 102.304 94.5125 105.073 94.9505 107.442C95.3274 109.48 96.1205 114.351 96.1205 114.351C96.1205 114.351 95.1835 114.757 94.6851 114.849C94.1867 114.94 93.5477 114.436 93.5477 114.436C93.5477 114.436 87.0732 102.518 86.9899 100.254C86.9065 97.9904 86.4846 77.4985 86.4846 77.4985Z" fill="url(#paint6_linear_2946_54426)"/>
<path d="M93.261 114.381C93.261 114.381 92.4385 115.786 91.4168 116.642C90.395 117.498 88.3788 118.521 87.9192 118.985C87.4595 119.45 87.9615 120.134 87.9615 120.134L92.903 119.971L96.8515 116.803L96.2998 113.784L93.261 114.381Z" fill="#677285"/>
<path d="M101.315 116.007L102.469 119.042C102.469 119.042 100.574 120.433 97.9568 120.82C95.3393 121.207 93.5358 120.613 93.5358 120.613C93.5358 120.613 93.0631 119.71 93.9539 119.324C94.363 119.146 95.2799 118.409 96.0849 117.466C96.4483 117.04 97.8173 116.123 97.8173 116.123L101.315 116.007Z" fill="#677285"/>
<path d="M109.588 57.6386C109.588 57.6386 111.101 59.822 112.029 59.2378C112.957 58.6536 118.751 53.022 118.751 53.022C118.751 53.022 120.475 51.7637 120.793 52.0628C121.112 52.3619 120.219 53.022 120.219 53.022C120.219 53.022 122.099 53.1971 122.687 53.1971C123.274 53.1971 124.51 54.0869 123.702 54.3863C122.894 54.6857 119.759 54.7597 119.759 54.7597C119.759 54.7597 114.999 63.2959 112.519 63.9011C110.038 64.5064 106.621 61.0832 106.621 61.0832L109.588 57.6386Z" fill="#FDE7E6"/>
<path d="M85.4043 57.7952C85.4043 57.7952 84.4119 59.7221 83.5126 59.2598C82.6133 58.7975 77.5676 53.7512 77.5676 53.7512C77.5676 53.7512 75.8872 52.7752 75.4763 52.9509C75.0654 53.1265 76.0784 53.7512 76.0784 53.7512C76.0784 53.7512 73.6062 53.9415 73.1411 54.1187C72.6761 54.296 72.1344 54.8396 72.8375 55.0867C73.5407 55.3338 76.2324 55.5096 76.2324 55.5096C76.2324 55.5096 79.9742 62.5217 82.8092 63.3417C85.6442 64.1616 88.0594 60.9309 88.0594 60.9309L85.4043 57.7952Z" fill="#FDE7E6"/>
<path d="M94.5826 51.8937V48.4486C94.5826 48.4486 92.6991 48.539 91.9334 47.3429C91.1677 46.1468 90.9609 42.7525 90.9609 42.7525L91.5379 41.1788L97.2112 40.9514L100.192 43.3601L98.804 45.6845L98.5394 46.1312L99.8622 51.4138L94.5826 51.8937Z" fill="#FDE7E6"/>
<mask id="mask2_2946_54426" style="mask-type:luminance" maskUnits="userSpaceOnUse" x="90" y="40" width="11" height="12">
<path d="M94.5826 51.8937V48.4486C94.5826 48.4486 92.6991 48.539 91.9334 47.3429C91.1677 46.1468 90.9609 42.7525 90.9609 42.7525L91.5379 41.1788L97.2112 40.9514L100.192 43.3601L98.804 45.6845L98.5394 46.1312L99.8622 51.4138L94.5826 51.8937Z" fill="white"/>
</mask>
<g mask="url(#mask2_2946_54426)">
<path d="M98.2735 45.1751C96.5968 47.1526 93.6969 48.5347 93.3193 48.5347C92.9417 48.5347 95.4279 51.0148 95.4279 51.0148L97.4506 51.8942L100.322 51.317L101.346 48.5347L99.5372 45.3779C99.5372 45.3779 99.9501 43.1976 98.2735 45.1751Z" fill="url(#paint7_linear_2946_54426)"/>
</g>
<path d="M84.1992 59.1791L86.9872 62.7404L88.7653 60.9597C88.7653 60.9597 87.4129 67.9914 86.9872 71.3637C86.5614 74.7361 86.4823 78.095 86.4823 78.095C86.4823 78.095 90.9465 79.6668 94.2743 79.9312C97.6022 80.1956 105.349 79.5148 105.349 79.5148L104.349 59.7214L107.251 62.2761L110.658 58.5453C110.658 58.5453 104.793 49.9981 103.684 49.5002C102.575 49.0023 99.4918 49.5002 99.4918 49.5002C99.4918 49.5002 97.304 51.9555 96.4168 51.9897C95.5297 52.024 93.5618 49.5002 93.5618 49.5002C93.5618 49.5002 90.4177 49.024 89.5036 49.9981C88.5894 50.9723 84.1992 59.1791 84.1992 59.1791Z" fill="url(#paint8_linear_2946_54426)"/>
<path d="M90.9618 42.7909C90.9618 42.7909 91.6304 41.1909 92.5032 41.4697C93.3291 41.7335 94.0445 42.3612 95.0721 42.6559C96.0996 42.9506 96.2132 41.6268 96.9114 41.8503C97.6097 42.0739 97.1488 44.0213 97.641 44.3839C98.1331 44.7466 98.1331 41.8503 99.1823 42.6301C100.231 43.4098 98.0877 45.6044 98.0877 45.6044C98.0877 45.6044 98.3625 46.9533 98.4506 47.045C98.5387 47.1368 98.5287 46.0637 98.5287 46.0637C98.5287 46.0637 99.5307 45.6989 99.9577 44.0537C100.385 42.4085 100.569 41.7535 99.9577 40.5581C99.3461 39.3627 99.1717 38.4265 97.641 37.8626C96.1102 37.2987 94.9487 37.5192 93.8789 37.8626C92.809 38.2059 92.0336 38.8882 91.5388 39.567C90.3849 41.1785 90.9618 42.7909 90.9618 42.7909Z" fill="#4D364F"/>
<path fill-rule="evenodd" clip-rule="evenodd" d="M194.116 0.59407C192.9 0.946526 167.729 15.2287 167.729 15.2287L175.075 15.7481L180.294 21.2189C180.294 21.2189 195.332 0.241613 194.116 0.59407Z" fill="#E8EAEB"/>
<mask id="mask3_2946_54426" style="mask-type:luminance" maskUnits="userSpaceOnUse" x="167" y="0" width="28" height="22">
<path fill-rule="evenodd" clip-rule="evenodd" d="M194.116 0.59407C192.9 0.946526 167.729 15.2287 167.729 15.2287L175.075 15.7481L180.294 21.2189C180.294 21.2189 195.332 0.241613 194.116 0.59407Z" fill="white"/>
</mask>
<g mask="url(#mask3_2946_54426)">
<path fill-rule="evenodd" clip-rule="evenodd" d="M175.075 15.7478L194.116 0.593771L180.294 21.2186L175.075 15.7478Z" fill="#D8DFE6"/>
</g>
<path fill-rule="evenodd" clip-rule="evenodd" d="M190.336 17.1433L181.509 16.2684L194.126 0.74106L190.336 17.1433Z" fill="#E8EAEB"/>
<path fill-rule="evenodd" clip-rule="evenodd" d="M174.084 27.4893C174.635 26.3825 175.191 25.2369 175.75 24.0525L176.663 24.4399C176.101 25.6302 175.543 26.7817 174.988 27.8945L174.084 27.4893ZM170.492 34.2412C171.102 33.1748 171.716 32.0579 172.335 30.8905L173.229 31.3168C172.605 32.4926 171.986 33.6181 171.371 34.6931L170.492 34.2412ZM168.532 37.5263C167.822 38.6623 167.118 39.7269 166.422 40.72L167.255 41.245C167.961 40.238 168.673 39.1597 169.392 38.0102L168.532 37.5263ZM161.543 46.6279C162.386 45.7982 163.242 44.8514 164.111 43.7875L164.902 44.368C164.012 45.4581 163.132 46.4307 162.263 47.2861L161.543 46.6279ZM158.606 49.0786C157.437 49.873 156.298 50.4224 155.191 50.7295L155.472 51.6397C156.694 51.3008 157.932 50.7032 159.188 49.8494L158.606 49.0786ZM148.139 49.1786C149.239 50.0195 150.357 50.5703 151.495 50.8359L151.256 51.7568C149.969 51.4563 148.721 50.8413 147.512 49.9168L148.139 49.1786ZM145.444 46.485C145.382 46.4081 145.32 46.3302 145.259 46.2513C144.454 45.2237 143.869 44.2486 143.496 43.3274L142.562 43.6673C142.97 44.6736 143.599 45.7233 144.456 46.8168C144.52 46.8991 144.585 46.9804 144.65 47.0607L145.444 46.485ZM145.205 36.945C144.124 37.7911 143.43 38.7622 143.146 39.8457L142.176 39.6174C142.514 38.3246 143.331 37.1829 144.568 36.2138L145.205 36.945ZM148.545 35.1634C149.671 34.7467 150.936 34.4068 152.308 34.1503L152.114 33.2199C150.687 33.4869 149.365 33.8419 148.182 34.28L148.545 35.1634ZM160.137 33.6078C158.806 33.5629 157.481 33.5837 156.189 33.67L156.119 32.724C157.446 32.6354 158.807 32.614 160.172 32.6601L160.137 33.6078ZM164.117 33.9402C165.458 34.1212 166.754 34.3691 167.979 34.6798L168.238 33.7637C166.973 33.443 165.637 33.1876 164.258 33.0014L164.117 33.9402ZM175.013 37.8051C174.099 37.0994 172.983 36.4659 171.695 35.9154L172.106 35.0508C173.469 35.6335 174.659 36.3089 175.645 37.0695L175.013 37.8051ZM177.396 40.6534C177.638 41.1849 177.792 41.7387 177.857 42.3147C177.926 42.924 177.95 43.5364 177.929 44.1521L178.928 44.183C178.951 43.5233 178.925 42.8668 178.851 42.2136C178.776 41.5427 178.596 40.8967 178.315 40.2785L177.396 40.6534ZM175.795 51.2181C176.438 50.0668 176.937 48.9276 177.29 47.8005L178.248 48.0707C177.876 49.2596 177.352 50.4568 176.678 51.6623L175.795 51.2181ZM173.677 54.3889C172.938 55.3444 172.101 56.3075 171.168 57.2781L171.907 57.917C172.863 56.9222 173.722 55.9333 174.483 54.9502L173.677 54.3889ZM165.426 62.409C166.487 61.5757 167.481 60.7473 168.408 59.924L169.091 60.616C168.15 61.4528 167.14 62.294 166.063 63.1395L165.426 62.409ZM162.274 64.7576C161.246 65.4869 160.168 66.2199 159.039 66.9566L159.606 67.7378C160.746 66.9942 161.835 66.2539 162.873 65.5169L162.274 64.7576ZM153.604 70.3038C154.314 69.8891 155.009 69.4755 155.688 69.063L156.227 69.8617C155.543 70.2772 154.843 70.6938 154.128 71.1114L153.604 70.3038Z" fill="#C7D0D9"/>
<defs>
<radialGradient id="paint0_radial_2946_54426" cx="0" cy="0" r="1" gradientUnits="userSpaceOnUse" gradientTransform="translate(130.611 132.728) rotate(-90) scale(48.6877 536.198)">
<stop stop-color="#EBEDF0" stop-opacity="0.24"/>
<stop offset="0.536775" stop-color="#EBEDF0" stop-opacity="0.845525"/>
<stop offset="1" stop-color="#E0E4E7" stop-opacity="0.01"/>
</radialGradient>
<linearGradient id="paint1_linear_2946_54426" x1="113.96" y1="162.546" x2="116.16" y2="167.507" gradientUnits="userSpaceOnUse">
<stop stop-color="#E1E7EA"/>
<stop offset="1" stop-color="#D0D6DC"/>
</linearGradient>
<linearGradient id="paint2_linear_2946_54426" x1="190.346" y1="134.816" x2="194.376" y2="143.679" gradientUnits="userSpaceOnUse">
<stop stop-color="#E1E7EA"/>
<stop offset="1" stop-color="#D0D6DC"/>
</linearGradient>
<linearGradient id="paint3_linear_2946_54426" x1="51.2703" y1="118.247" x2="53.5207" y2="127.7" gradientUnits="userSpaceOnUse">
<stop stop-color="#FBFBFB"/>
<stop offset="1" stop-color="#D9DFE3"/>
</linearGradient>
<linearGradient id="paint4_linear_2946_54426" x1="112.901" y1="123.462" x2="120.922" y2="161.389" gradientUnits="userSpaceOnUse">
<stop stop-color="#C4CDD1"/>
<stop offset="1" stop-color="#C6CFD3" stop-opacity="0.01"/>
</linearGradient>
<linearGradient id="paint5_linear_2946_54426" x1="86.0883" y1="127.262" x2="95.4686" y2="153.076" gradientUnits="userSpaceOnUse">
<stop stop-color="#C4CDD1"/>
<stop offset="1" stop-color="#C6CFD3" stop-opacity="0.01"/>
</linearGradient>
<linearGradient id="paint6_linear_2946_54426" x1="106.286" y1="117.041" x2="104.966" y2="77.1878" gradientUnits="userSpaceOnUse">
<stop stop-color="#A1A7B8"/>
<stop offset="1" stop-color="#7B8195"/>
</linearGradient>
<linearGradient id="paint7_linear_2946_54426" x1="99.068" y1="49.5809" x2="99.068" y2="46.2428" gradientUnits="userSpaceOnUse">
<stop stop-color="#FBD8D6"/>
<stop offset="1" stop-color="#EAC0BE" stop-opacity="0.7"/>
</linearGradient>
<linearGradient id="paint8_linear_2946_54426" x1="70.8142" y1="63.2933" x2="97.0834" y2="92.5145" gradientUnits="userSpaceOnUse">
<stop stop-color="#E5E9F0"/>
<stop offset="1" stop-color="#D2DAE8"/>
</linearGradient>
</defs>
</svg>
