<svg width="80" height="80" viewBox="0 0 80 80" fill="none" xmlns="http://www.w3.org/2000/svg">
<rect x="0.5" y="0.5" width="79" height="79" rx="7.5" fill="#E5FFFF"/>
<rect x="0.5" y="0.5" width="79" height="79" rx="7.5" stroke="#BDFFFF"/>
<path d="M49.3332 21.9166C49.3332 24.81 46.9765 27.1666 44.0832 27.1666H35.9165C34.4698 27.1666 33.1632 26.5833 32.2065 25.6266C31.2498 24.67 30.6665 23.3633 30.6665 21.9166C30.6665 19.0233 33.0232 16.6666 35.9165 16.6666H44.0832C45.5298 16.6666 46.8365 17.25 47.7932 18.2066C48.7498 19.1633 49.3332 20.47 49.3332 21.9166Z" fill="#1D6FA0"/>
<path d="M55.9368 23.7367C55.4002 23.2934 54.7935 22.9434 54.1402 22.6867C53.4635 22.43 52.7868 22.9667 52.6468 23.6667C51.8535 27.6567 48.3302 30.6667 44.0835 30.6667H35.9168C33.5835 30.6667 31.3902 29.7567 29.7335 28.1C28.5202 26.8867 27.6802 25.3467 27.3535 23.69C27.2135 22.99 26.5135 22.43 25.8368 22.71C23.1302 23.8067 21.3335 26.28 21.3335 31.25V54C21.3335 61 25.5102 63.3334 30.6668 63.3334H49.3335C54.4902 63.3334 58.6668 61 58.6668 54V31.25C58.6668 27.4467 57.6168 25.1134 55.9368 23.7367ZM30.6668 40.5834H40.0002C40.9568 40.5834 41.7502 41.3767 41.7502 42.3334C41.7502 43.29 40.9568 44.0834 40.0002 44.0834H30.6668C29.7102 44.0834 28.9168 43.29 28.9168 42.3334C28.9168 41.3767 29.7102 40.5834 30.6668 40.5834ZM49.3335 53.4167H30.6668C29.7102 53.4167 28.9168 52.6234 28.9168 51.6667C28.9168 50.71 29.7102 49.9167 30.6668 49.9167H49.3335C50.2902 49.9167 51.0835 50.71 51.0835 51.6667C51.0835 52.6234 50.2902 53.4167 49.3335 53.4167Z" fill="#1D6FA0"/>
</svg>
