<svg width="48" height="48" viewBox="0 0 48 48" fill="none" xmlns="http://www.w3.org/2000/svg">
<rect width="48" height="48" rx="8" fill="#1D6FA0"/>
<path d="M19.75 15.5V14C19.75 13.59 19.41 13.25 19 13.25C18.59 13.25 18.25 13.59 18.25 14V15.56C18.5 15.53 18.73 15.5 19 15.5H19.75Z" fill="#F4F7FF"/>
<path d="M27.75 15.56V14C27.75 13.59 27.41 13.25 27 13.25C26.59 13.25 26.25 13.59 26.25 14V15.5H27C27.27 15.5 27.5 15.53 27.75 15.56Z" fill="#F4F7FF"/>
<path d="M33.29 26.97C32.52 26.36 31.55 26 30.5 26C29.45 26 28.46 26.37 27.69 26.99C26.65 27.81 26 29.09 26 30.5C26 31.34 26.24 32.15 26.65 32.81C26.97 33.33 27.38 33.79 27.87 34.14C28.61 34.68 29.51 35 30.5 35C31.64 35 32.67 34.58 33.46 33.88C33.81 33.59 34.11 33.23 34.35 32.82C34.76 32.15 35 31.34 35 30.5C35 29.07 34.33 27.79 33.29 26.97ZM30.5 32.64C30.5 31.46 29.54 30.5 28.36 30.5C29.54 30.5 30.5 29.54 30.5 28.36C30.5 29.54 31.46 30.5 32.64 30.5C31.46 30.5 30.5 31.46 30.5 32.64Z" fill="#F4F7FF"/>
<path d="M27.75 15.56V17C27.75 17.41 27.41 17.75 27 17.75C26.59 17.75 26.25 17.41 26.25 17V15.5H19.75V17C19.75 17.41 19.41 17.75 19 17.75C18.59 17.75 18.25 17.41 18.25 17V15.56C15.3 15.83 14 17.73 14 20.5V29C14 32 15.5 34 19 34H23.13C23.89 34 24.4 33.15 24.21 32.41C24.07 31.87 24 31.31 24 30.75C24 28.67 24.93 26.75 26.54 25.48C27.71 24.53 29.21 24 30.75 24H30.79C31.42 24 32 23.54 32 22.91V20.5C32 17.73 30.7 15.83 27.75 15.56ZM21 28.75H19C18.59 28.75 18.25 28.41 18.25 28C18.25 27.59 18.59 27.25 19 27.25H21C21.41 27.25 21.75 27.59 21.75 28C21.75 28.41 21.41 28.75 21 28.75ZM24 23.75H19C18.59 23.75 18.25 23.41 18.25 23C18.25 22.59 18.59 22.25 19 22.25H24C24.41 22.25 24.75 22.59 24.75 23C24.75 23.41 24.41 23.75 24 23.75Z" fill="#F4F7FF"/>
</svg>
