<svg width="41" height="40" viewBox="0 0 41 40" fill="none" xmlns="http://www.w3.org/2000/svg">
<rect x="0.5" width="40" height="40" rx="20" fill="#1D6FA0"/>
<path d="M24.5467 17.6734L18.84 14.8201C15.0067 12.9001 13.4333 14.4734 15.3533 18.3068L15.9333 19.4668C16.1 19.8068 16.1 20.2001 15.9333 20.5401L15.3533 21.6934C13.4333 25.5268 15 27.1001 18.84 25.1801L24.5467 22.3268C27.1067 21.0468 27.1067 18.9534 24.5467 17.6734ZM22.3933 20.5001H18.7933C18.52 20.5001 18.2933 20.2734 18.2933 20.0001C18.2933 19.7268 18.52 19.5001 18.7933 19.5001H22.3933C22.6667 19.5001 22.8933 19.7268 22.8933 20.0001C22.8933 20.2734 22.6667 20.5001 22.3933 20.5001Z" fill="white"/>
</svg>
