<svg width="20" height="20" viewBox="0 0 20 20" fill="none" xmlns="http://www.w3.org/2000/svg">
<g clip-path="url(#clip0_1685_76173)">
<path d="M17.7746 6.60007C17.4329 6.60007 17.1496 6.31673 17.1496 5.97507V4.4584C17.1496 3.85007 16.6579 3.3584 16.0496 3.3584H3.94961C3.34128 3.3584 2.84961 3.85007 2.84961 4.4584V5.9834C2.84961 6.32507 2.56628 6.6084 2.22461 6.6084C1.88294 6.6084 1.59961 6.32507 1.59961 5.97507V4.4584C1.59961 3.1584 2.65794 2.1084 3.94961 2.1084H16.0496C17.3496 2.1084 18.3996 3.16673 18.3996 4.4584V5.9834C18.3996 6.32507 18.1246 6.60007 17.7746 6.60007Z" fill="#292D32"/>
<path d="M10 17.8917C9.65833 17.8917 9.375 17.6084 9.375 17.2667V3.42505C9.375 3.08338 9.65833 2.80005 10 2.80005C10.3417 2.80005 10.625 3.08338 10.625 3.42505V17.2667C10.625 17.6167 10.3417 17.8917 10 17.8917Z" fill="#292D32"/>
<path d="M13.2835 17.8916H6.7168C6.37513 17.8916 6.0918 17.6083 6.0918 17.2666C6.0918 16.9249 6.37513 16.6416 6.7168 16.6416H13.2835C13.6251 16.6416 13.9085 16.9249 13.9085 17.2666C13.9085 17.6083 13.6251 17.8916 13.2835 17.8916Z" fill="#292D32"/>
</g>
<defs>
<clipPath id="clip0_1685_76173">
<rect width="20" height="20" fill="white"/>
</clipPath>
</defs>
</svg>
