<svg width="24" height="24" viewBox="0 0 24 24" fill="none" xmlns="http://www.w3.org/2000/svg">
<path d="M15.26 22.2503H8.73998C3.82998 22.2503 1.72998 20.1503 1.72998 15.2403V15.1103C1.72998 10.6703 3.47998 8.53027 7.39998 8.16027C7.79998 8.13027 8.17998 8.43027 8.21998 8.84027C8.25998 9.25027 7.95998 9.62027 7.53998 9.66027C4.39998 9.95027 3.22998 11.4303 3.22998 15.1203V15.2503C3.22998 19.3203 4.66998 20.7603 8.73998 20.7603H15.26C19.33 20.7603 20.77 19.3203 20.77 15.2503V15.1203C20.77 11.4103 19.58 9.93027 16.38 9.66027C15.97 9.62027 15.66 9.26027 15.7 8.85027C15.74 8.44027 16.09 8.13027 16.51 8.17027C20.49 8.51027 22.27 10.6603 22.27 15.1303V15.2603C22.27 20.1503 20.17 22.2503 15.26 22.2503Z" fill="#1D6FA0"/>
<path d="M12 15.7491C11.59 15.7491 11.25 15.4091 11.25 14.9991V3.61914C11.25 3.20914 11.59 2.86914 12 2.86914C12.41 2.86914 12.75 3.20914 12.75 3.61914V14.9991C12.75 15.4091 12.41 15.7491 12 15.7491Z" fill="#1D6FA0"/>
<path d="M15.35 6.59945C15.16 6.59945 14.97 6.52945 14.82 6.37945L12 3.55945L9.17997 6.37945C8.88997 6.66945 8.40997 6.66945 8.11997 6.37945C7.82997 6.08945 7.82997 5.60945 8.11997 5.31945L11.47 1.96945C11.76 1.67945 12.24 1.67945 12.53 1.96945L15.88 5.31945C16.17 5.60945 16.17 6.08945 15.88 6.37945C15.74 6.52945 15.54 6.59945 15.35 6.59945Z" fill="#1D6FA0"/>
</svg>
